<svg id="Layer_4" data-name="Layer 4" xmlns="http://www.w3.org/2000/svg" viewBox="0 0 292.08 183.19">
  <title>shutterstock_285049772-1 [Converted]</title>
  <path id="girl-body" d="M251,84.88v33l11.78,22.2H250.94v31a12.09,12.09,0,1,1-24.19,0V140.26H214.29V171.1a12.09,12.09,0,1,1-24.19,0l0-31H179.61l10.49-22.2v-33l-37.5-37.5a12.09,12.09,0,0,1,17.1-17.1L199,59.57a29.51,29.51,0,0,0,43.06,0l29.39-29.39a12.09,12.09,0,0,1,17.1,17.1Z" style="fill: #8dc63f"/>
  <path id="girl-head" d="M193.43,41.22a29.52,29.52,0,0,0,54.9-1.78c11.35-2.07,17.39-15.79,17.39-15.79s-6,4.46-16.64-1.64a29.52,29.52,0,0,0-57.59,2.2l0,0c-9.23,8.92-14.51,4.1-14.51,4.1S182.71,44.46,193.43,41.22Z" style="fill: #8dc63f"/>
  <path id="boy-body" d="M122.38,30.19L93,59.57a29.51,29.51,0,0,1-43.06,0L20.64,30.29a12.09,12.09,0,0,0-17.1,17.1L41,84.89V171.1a12.09,12.09,0,1,0,24.19,0V139.23a6.24,6.24,0,1,1,12.48,0V171.1a12.09,12.09,0,1,0,24.19,0V84.88l37.59-37.59A12.09,12.09,0,0,0,122.38,30.19Z" style="fill: #8dc63f"/>
  <circle id="boy-head" cx="71.46" cy="29.51" r="29.51" style="fill: #8dc63f"/>
</svg>
