<svg id="b31f5b7b-0251-4d45-85f4-ed4603a73a96" data-name="Layer 1" xmlns="http://www.w3.org/2000/svg" viewBox="0 0 99.24 93.78" width="110px">
  <defs>
    <style>
      .d0f66d25-d1b3-46d2-a696-c95759d95c14 {
        fill: #02517B;
      }
    </style>
  </defs>
  <title>new-icons</title>
  <g>
    <g>
      <path class="d0f66d25-d1b3-46d2-a696-c95759d95c14" d="M49.62,15.51c3.47,0,6.27-5.78,6.27-9.24a6.27,6.27,0,0,0-12.55,0C43.35,9.73,46.16,15.51,49.62,15.51Z"/>
      <path class="d0f66d25-d1b3-46d2-a696-c95759d95c14" d="M48.32,19.51a36,36,0,0,1,1.3,7.4,35.81,35.81,0,0,1,1.3-7.4c.74-1.86-.12-2.68-1.3-2.74S47.57,17.65,48.32,19.51Z"/>
      <path class="d0f66d25-d1b3-46d2-a696-c95759d95c14" d="M86.26,13.35S77.73,18.9,73,19.58,61.89,15.1,54.66,15.1a131.6,131.6,0,0,0-5,15,131.92,131.92,0,0,0-5-15c-7.23,0-13.59,5.16-18.33,4.49S13,13.35,13,13.35a7.87,7.87,0,0,0-1.22,5A28.91,28.91,0,0,0,33.54,26.8c1.84,0,4.94-.34,5.47,1.94a125,125,0,0,0-.13,20.37,315.91,315.91,0,0,0,5.34,44,18.46,18.46,0,0,0,5.39.71A18.46,18.46,0,0,0,55,93.07a315.46,315.46,0,0,0,5.34-44,124.72,124.72,0,0,0-.13-20.37c.53-2.27,3.63-2,5.47-1.94a28.92,28.92,0,0,0,21.79-8.43A7.85,7.85,0,0,0,86.26,13.35Z"/>
    </g>
    <g>
      <path class="d0f66d25-d1b3-46d2-a696-c95759d95c14" d="M21.25,41.73l-9-21-9,21H0c.35,4,5.13,7.59,12.25,7.59s11.9-3.61,12.25-7.59Zm-15.49,0,6.49-15.18,6.49,15.18h-13Z"/>
      <path class="d0f66d25-d1b3-46d2-a696-c95759d95c14" d="M96,41.73l-9-21-9,21H74.73c.35,4,5.14,7.59,12.25,7.59s11.9-3.61,12.25-7.59Zm-15.49,0L87,26.55l6.49,15.18h-13Z"/>
    </g>
  </g>
</svg>
