<?xml version="1.0" encoding="utf-8"?>
<!-- Generator: Adobe Illustrator 16.0.4, SVG Export Plug-In . SVG Version: 6.00 Build 0)  -->
<!DOCTYPE svg PUBLIC "-//W3C//DTD SVG 1.1//EN" "http://www.w3.org/Graphics/SVG/1.1/DTD/svg11.dtd">
<svg version="1.1" id="Layer_1" xmlns="http://www.w3.org/2000/svg" xmlns:xlink="http://www.w3.org/1999/xlink" x="0px" y="0px"
	 width="130px" viewBox="0 0 93.75 65.5" style="enable-background:new 0 0 93.75 65.5;" xml:space="preserve">
<style type="text/css">
<![CDATA[
	*{fill:#02517B;}
]]>
</style>
<g>
	<path class="st3" d="M78.592,25.729c-0.762-0.903-1.594-1.713-2.479-2.432l2.098-5.817l-11.305-4.076l-2.1,5.818
		c-2.301-0.028-4.613,0.375-6.806,1.219l-3.99-4.725l-9.182,7.752l3.988,4.725c-1.199,2.021-1.985,4.232-2.342,6.506l-6.09,1.092
		l2.122,11.83l6.089-1.094c0.559,0.994,1.218,1.95,1.98,2.854s1.595,1.714,2.48,2.431l-2.099,5.818l11.306,4.077l2.098-5.82
		c2.302,0.03,4.614-0.373,6.808-1.218l3.988,4.725l9.183-7.751l-3.989-4.726c1.201-2.021,1.986-4.232,2.344-6.507l6.089-1.092
		L86.661,27.49l-6.089,1.092C80.014,27.589,79.355,26.633,78.592,25.729z M71.306,45.518c-4.397,3.712-10.971,3.156-14.684-1.241
		c-3.712-4.396-3.157-10.971,1.24-14.683c4.397-3.713,10.973-3.157,14.684,1.239C76.26,35.231,75.703,41.805,71.306,45.518z"/>
	<path class="st3" d="M39.446,19.965c-0.186-0.973-0.459-1.907-0.811-2.796l3.929-3.383l-6.573-7.629L32.062,9.54
		c-1.669-0.969-3.522-1.628-5.471-1.915l-0.965-5.091l-9.896,1.877l0.966,5.09c-1.708,0.982-3.192,2.272-4.39,3.785l-4.895-1.711
		l-3.322,9.509l4.894,1.71c-0.002,0.955,0.085,1.924,0.271,2.898c0.185,0.973,0.457,1.906,0.81,2.795l-3.928,3.384l6.572,7.631
		l3.929-3.384c1.669,0.969,3.521,1.627,5.471,1.914l0.966,5.091l9.895-1.877l-0.966-5.091c1.708-0.98,3.191-2.271,4.39-3.784
		l4.895,1.71l3.322-9.507l-4.894-1.711C39.717,21.908,39.631,20.939,39.446,19.965z M25.978,31.408
		c-4.739,0.898-9.309-2.214-10.207-6.953c-0.899-4.737,2.213-9.308,6.951-10.207c4.74-0.898,9.309,2.215,10.208,6.953
		C33.828,25.939,30.716,30.51,25.978,31.408z"/>
</g>
</svg>
