<svg id="02969a15-1ff6-487c-821a-5fe7be745125" data-name="Layer 1" xmlns="http://www.w3.org/2000/svg" viewBox="0 0 55 55" width="70px">
  <defs>
    <style>
      .e5c8d521-1ec3-43b5-8f12-73e86920da28 {
        fill: #02517B;
      }
    </style>
  </defs>
  <title>new-icons</title>
  <g>
    <g>
      <path class="e5c8d521-1ec3-43b5-8f12-73e86920da28" d="M55,26.57l-8.13-1.38A19.2,19.2,0,0,1,47,27.5,19.47,19.47,0,0,1,13.73,41.27l4.66-4.66-17.7-3,2.7,18,4.68-4.68A27.48,27.48,0,0,0,55,27.5C55,27.19,55,26.88,55,26.57Z"/>
      <g>
        <polygon class="e5c8d521-1ec3-43b5-8f12-73e86920da28" points="0.69 33.61 0.69 33.61 0.69 33.61 0.69 33.61"/>
        <path class="e5c8d521-1ec3-43b5-8f12-73e86920da28" d="M54.31,21.38l-2.69-18L46.93,8.07A27.48,27.48,0,0,0,0,27.5c0,.31,0,.62,0,.93L8.15,29.8A19.11,19.11,0,0,1,8,27.5,19.47,19.47,0,0,1,41.27,13.73l-4.65,4.65Z"/>
      </g>
    </g>
<!--     <path class="e5c8d521-1ec3-43b5-8f12-73e86920da28" d="M35,29.19a5.8,5.8,0,0,0-1.54-1.87,8.64,8.64,0,0,0-2.16-1.25,16.41,16.41,0,0,0-1.76-.6V21a5.94,5.94,0,0,1,1,.38,7,7,0,0,1,1,.58c.28.21.52.4.72.57L35,19.41A12.34,12.34,0,0,0,33,17.88a8.54,8.54,0,0,0-3.4-1.08V15H26.45v1.8A7.51,7.51,0,0,0,22,18.74a5.48,5.48,0,0,0-1.61,4.08,5.24,5.24,0,0,0,1.46,3.83,9.25,9.25,0,0,0,4.23,2.28l.36.12v4.81a6.59,6.59,0,0,1-1.71-.62,9.33,9.33,0,0,1-2.42-1.8l-2.92,3.25a11,11,0,0,0,2.92,2.19,10.85,10.85,0,0,0,4.13,1.19V40h3.11V37.93a8.9,8.9,0,0,0,2.38-.69A7.1,7.1,0,0,0,33.85,36a5.67,5.67,0,0,0,1.28-1.79,5.44,5.44,0,0,0,.47-2.29A5.64,5.64,0,0,0,35,29.19ZM26.45,24.5l-.52-.24a1.64,1.64,0,0,1-1-1.54,1.47,1.47,0,0,1,.29-.91,2.07,2.07,0,0,1,.75-.62,4.47,4.47,0,0,1,.46-.15Zm4.29,8.44a1.94,1.94,0,0,1-.68.65,2.93,2.93,0,0,1-.49.22V30.08a4.75,4.75,0,0,1,.49.26A1.83,1.83,0,0,1,31,32,1.79,1.79,0,0,1,30.74,32.94Z"/> -->
  </g>
</svg>
