<?xml version="1.0" encoding="utf-8"?>
<!-- Generator: Adobe Illustrator 16.0.4, SVG Export Plug-In . SVG Version: 6.00 Build 0)  -->
<!DOCTYPE svg PUBLIC "-//W3C//DTD SVG 1.1//EN" "http://www.w3.org/Graphics/SVG/1.1/DTD/svg11.dtd">
<svg version="1.1" id="Layer_1" xmlns="http://www.w3.org/2000/svg" xmlns:xlink="http://www.w3.org/1999/xlink" x="0px" y="0px"
	 width="95px" viewBox="0 0 116.617 85.74" style="enable-background:new 0 0 116.617 85.74;"
	 xml:space="preserve">
<style type="text/css">
<![CDATA[
	*{fill:#EAC419;}
/* 	.st1{fill:#1C1C1C;}
	.st2{fill:#272525;}
	.st3{fill:#FFFFFF;}
	.st4{fill-rule:evenodd;clip-rule:evenodd;fill:#272525;} */
]]>
</style>
<g>
	<g>
		<g>
			<path d="M102.939,45.868c-3.305,5.169-2.991,11.271-2.991,11.271s5.672-2.278,8.977-7.446c3.304-5.166,2.99-11.267,2.99-11.267
				S106.243,40.699,102.939,45.868z"/>
			<g>
				<path d="M99.261,59.664c-2.9,1.654-7.397,7.861-7.285,8.022c0.354,0.513,5.331,0.948,10.188-1.824
					c5.208-2.97,10.067-10.233,10.067-10.24C112.109,54.998,103.56,57.209,99.261,59.664z"/>
			</g>
			<g>
				<path d="M108.877,33.784c-0.508,3.132-5.29,8.626-5.447,8.56c-0.498-0.209-0.686-6.619-0.321-9.789
					c0.372-3.221,3.196-9.668,3.202-9.668C106.859,22.852,109.431,30.357,108.877,33.784z"/>
			</g>
			<g>
				<path d="M98.991,49.783c0.553,5.632-2.517,9.494-2.683,9.481c-0.52-0.034-2.475-5.818-3.016-8.819
					c-0.55-3.049,0.283-9.797,0.287-9.801C94.08,40.444,98.417,43.979,98.991,49.783z"/>
			</g>
			<g>
				<path d="M99.161,35.686c2.274,3.888,2.255,8.509,2.117,8.568c-0.432,0.189-3.845-2.235-6.353-5.674
					c-1.662-2.279-4.168-7.817-4.165-7.82C91.069,30.394,97.637,33.081,99.161,35.686z"/>
			</g>
			<path d="M99.646,24.153c-2.629-4.891-7.59-7.336-7.59-7.336s-0.703,5.487,1.928,10.379c2.626,4.89,7.586,7.336,7.586,7.336
				S102.274,29.045,99.646,24.153z"/>
			<path d="M90.991,69.254c-1.008,0.085-1.974,0.266-2.896,0.496c1.573-1.342,3.155-2.94,3.75-4.289
				c1.438-3.27,0.82-11.41,0.262-11.52c-0.004,0-4.48,5.691-5.688,8.805c-0.729,1.889-1.567,5.055-2.003,7.286
				c-0.021,0.017-0.045,0.021-0.066,0.039c-1.939,1.638-4.771,3.063-8.118,4.201l-0.029,1.888c1.49-0.486,2.896-1.025,4.187-1.617
				c1.864,0.905,6.288,2.717,11.244,2.297c6.549-0.555,11.539-4.796,11.539-4.796S97.542,68.7,90.991,69.254z"/>
		</g>
		<g>
			<path d="M16.289,45.868c3.306,5.169,2.99,11.271,2.99,11.271s-5.671-2.278-8.975-7.446c-3.303-5.166-2.99-11.267-2.99-11.267
				S12.985,40.699,16.289,45.868z"/>
			<g>
				<path d="M19.968,59.664c2.901,1.654,7.397,7.861,7.285,8.022c-0.354,0.513-5.33,0.948-10.189-1.824
					c-5.206-2.97-10.065-10.233-10.065-10.24C7.12,54.998,15.669,57.209,19.968,59.664z"/>
			</g>
			<g>
				<path d="M10.354,33.784c0.507,3.132,5.288,8.626,5.444,8.56c0.498-0.209,0.687-6.619,0.32-9.789
					c-0.37-3.221-3.194-9.668-3.2-9.668C12.371,22.852,9.798,30.357,10.354,33.784z"/>
			</g>
			<g>
				<path d="M20.239,49.783c-0.556,5.632,2.516,9.494,2.681,9.481c0.521-0.034,2.476-5.818,3.016-8.819
					c0.551-3.049-0.281-9.797-0.285-9.801C25.148,40.444,20.811,43.979,20.239,49.783z"/>
			</g>
			<g>
				<path d="M20.068,35.686c-2.273,3.888-2.255,8.509-2.118,8.568c0.433,0.189,3.845-2.235,6.354-5.674
					c1.66-2.279,4.169-7.817,4.164-7.82C28.16,30.394,21.592,33.081,20.068,35.686z"/>
			</g>
			<path d="M19.583,24.153c2.629-4.891,7.591-7.336,7.591-7.336s0.702,5.487-1.927,10.379c-2.626,4.89-7.587,7.336-7.587,7.336
				S16.957,29.045,19.583,24.153z"/>
			<path d="M39.812,74.968l0.321-1.796c-2.101-0.914-3.897-1.954-5.255-3.101c-0.021-0.018-0.047-0.022-0.067-0.039
				c-0.434-2.231-1.272-5.397-2.003-7.286c-1.204-3.113-5.683-8.805-5.687-8.805c-0.557,0.109-1.176,8.25,0.261,11.52
				c0.596,1.349,2.178,2.947,3.751,4.289c-0.921-0.23-1.887-0.411-2.896-0.496c-6.551-0.554-12.182,2.79-12.182,2.79
				s4.989,4.241,11.539,4.796c4.956,0.42,9.381-1.392,11.244-2.297C39.155,74.688,39.482,74.829,39.812,74.968z"/>
		</g>
	</g>
	<path d="M85.21,27.973C83.853,15.625,71.422,6.865,59.963,5.661c-6.864-0.722-12.223,1.381-14.814,5.275
		c-2.268,3.412-1.775,7.935-1.255,9.732c0.968,3.332,1.058,9.069,0.183,11.584c-0.198,0.567-0.73,0.922-1.299,0.922
		c-0.151,0-0.302-0.024-0.452-0.077c-0.718-0.249-1.098-1.032-0.847-1.75c0.63-1.813,0.635-6.947-0.226-9.914
		c-0.222-0.764-1.096-0.662-1.617-0.174c-5.523,5.157-6.41,14.987-2.227,23.574c6.369,13.078,8.862,14.91,8.825,20.445
		l-1.812,10.893l29.198,0.217l-0.927-9.221C76.465,56.658,86.727,41.8,85.21,27.973z"/>
</g>
</svg>
