<?xml version="1.0" encoding="utf-8"?>
<!-- Generator: Adobe Illustrator 16.0.4, SVG Export Plug-In . SVG Version: 6.00 Build 0)  -->
<!DOCTYPE svg PUBLIC "-//W3C//DTD SVG 1.1//EN" "http://www.w3.org/Graphics/SVG/1.1/DTD/svg11.dtd">
<svg version="1.1" id="Layer_1" xmlns="http://www.w3.org/2000/svg" xmlns:xlink="http://www.w3.org/1999/xlink" x="0px" y="0px"
	 width="80px" viewBox="0 0 84.051 95.5" style="enable-background:new 0 0 84.051 95.5;" xml:space="preserve"
	>
<style type="text/css">
<![CDATA[
	*{fill:#02517B;}
]]>
</style>
<g>
	<path d="M74.886,10.779H11.903c-1.069,0-1.936,0.866-1.936,1.937v73.035c0,1.068,0.866,1.936,1.936,1.936h62.982
		c1.069,0,1.937-0.867,1.937-1.936V12.716C76.822,11.646,75.955,10.779,74.886,10.779z M72.95,83.815H13.838V14.651H72.95V83.815z"
		/>
	<path d="M64.736,72.21c-0.08,0.081-0.171,0.153-0.276,0.214c-0.206,0.119-0.446,0.181-0.716,0.181l0,0
		c-0.354,0-0.707-0.102-1.049-0.199c-0.263-0.074-0.533-0.153-0.718-0.153c-0.046,0-0.073,0.006-0.088,0.01
		c-0.14,0.036-0.401,0.309-0.592,0.506c-0.335,0.349-0.707,0.735-1.191,0.869l2.514,6.633c0.062,0.163,0.287,0.178,0.369,0.025
		l1.306-2.428l2.586,0.952c0.164,0.061,0.322-0.1,0.26-0.262L64.736,72.21z"/>
	<path d="M58.193,72.768c-0.19-0.197-0.452-0.47-0.592-0.506c-0.016-0.004-0.042-0.01-0.088-0.01c-0.186,0-0.456,0.079-0.719,0.152
		c-0.341,0.099-0.693,0.2-1.048,0.2c-0.27,0-0.51-0.062-0.715-0.181c-0.106-0.061-0.198-0.133-0.277-0.214l-2.405,6.348
		c-0.062,0.162,0.097,0.322,0.26,0.262l2.587-0.952l1.305,2.428c0.083,0.152,0.308,0.138,0.369-0.025l2.514-6.633
		C58.899,73.503,58.528,73.116,58.193,72.768z"/>
	<path d="M64.147,56.639c-0.615-0.357-1.717,0.414-2.419,0.226c-0.68-0.182-1.247-1.404-1.982-1.404
		c-0.737,0-1.303,1.223-1.983,1.404c-0.703,0.188-1.803-0.583-2.419-0.226c-0.624,0.361-0.505,1.702-1.013,2.208
		c-0.505,0.508-1.848,0.389-2.209,1.013c-0.355,0.615,0.414,1.716,0.226,2.419c-0.181,0.68-1.403,1.246-1.403,1.982
		c0,0.737,1.223,1.304,1.403,1.983c0.188,0.703-0.581,1.803-0.226,2.419c0.361,0.624,1.704,0.506,2.209,1.013
		c0.508,0.506,0.389,1.847,1.013,2.208c0.616,0.357,1.716-0.414,2.419-0.225c0.681,0.181,1.246,1.403,1.983,1.403
		c0.735,0,1.303-1.223,1.982-1.403c0.702-0.189,1.804,0.582,2.419,0.225c0.624-0.361,0.506-1.702,1.012-2.208
		c0.508-0.507,1.848-0.389,2.209-1.013c0.356-0.616-0.413-1.716-0.226-2.418c0.183-0.681,1.404-1.247,1.404-1.984
		c0-0.736-1.222-1.303-1.404-1.982c-0.188-0.703,0.582-1.804,0.226-2.419c-0.361-0.624-1.701-0.505-2.209-1.013
		C64.653,58.341,64.771,57,64.147,56.639z"/>
	<rect x="19.179" y="21.135" width="47.902" height="10.742"/>
	<path d="M20.63,41.965l44.999,0.001c0.802,0,1.452-0.651,1.452-1.452c0-0.803-0.65-1.452-1.452-1.452H20.63
		c-0.802,0-1.451,0.649-1.451,1.452C19.179,41.314,19.828,41.965,20.63,41.965z"/>
	<path d="M20.63,50.965h44.999c0.802,0,1.452-0.651,1.452-1.452c0-0.802-0.65-1.451-1.452-1.451H20.63
		c-0.802,0-1.451,0.649-1.451,1.451C19.179,50.313,19.828,50.965,20.63,50.965z"/>
	<path d="M20.63,59.965h27.467c0.802,0,1.452-0.65,1.452-1.452s-0.65-1.452-1.452-1.452H20.63c-0.802,0-1.451,0.65-1.451,1.452
		S19.828,59.965,20.63,59.965z"/>
	<path d="M20.63,68.964h27.467c0.802,0,1.452-0.65,1.452-1.451c0-0.803-0.65-1.452-1.452-1.452H20.63
		c-0.802,0-1.451,0.649-1.451,1.452C19.179,68.313,19.828,68.964,20.63,68.964z"/>
	<path d="M20.63,77.964h27.467c0.802,0,1.452-0.649,1.452-1.451s-0.65-1.452-1.452-1.452H20.63c-0.802,0-1.451,0.65-1.451,1.452
		S19.828,77.964,20.63,77.964z"/>
</g>
</svg>
