<?xml version="1.0" encoding="utf-8"?>
<!-- Generator: Adobe Illustrator 16.0.4, SVG Export Plug-In . SVG Version: 6.00 Build 0)  -->
<!DOCTYPE svg PUBLIC "-//W3C//DTD SVG 1.1//EN" "http://www.w3.org/Graphics/SVG/1.1/DTD/svg11.dtd">
<svg version="1.1" id="Layer_1" xmlns="http://www.w3.org/2000/svg" xmlns:xlink="http://www.w3.org/1999/xlink" x="0px" y="0px"
	 width="80px" viewBox="0 0 77.333 83" style="enable-background:new 0 0 77.333 83;" xml:space="preserve">
<style type="text/css">
<![CDATA[
	*{fill:#02517B;}
]]>
</style>
<path class="st2" d="M59.102,75.229c-0.098-0.001-0.201-0.001-0.309,0c-4.215,0.052-15.854,2.274-18.199,3.185
	c-1.002,0.389-2.139,0.603-3.285,0.617c-1.17,0.014-2.314-0.172-3.308-0.537C29.271,76.754,11.74,64.538,4.862,54.766
	c-0.751-1.066-0.985-1.947-0.681-2.544c0.336-0.655,1.367-1.041,2.83-1.059c1.536-0.019,3.373,0.361,4.913,1.016l0.103,0.043
	l0.102-0.045c0.297-0.131,0.621-0.199,0.966-0.203c1.968-0.023,4.225,2.011,5.31,2.989c0.234,0.212,0.421,0.38,0.547,0.476
	l0.055,0.043c1.801,1.394,3.512,2.604,4.768,3.462c-0.625,0.1-1.18,0.202-1.682,0.312c-2.805,0.609-3.932,2.839-3.598,4.727
	c0.289,1.632,1.82,3.523,5.184,3.482c0.389-0.005,13.209-0.201,18.619,0.348c0.473,0.048,0.829,0.156,1.205,0.271
	c0.541,0.166,1.101,0.338,2.01,0.326c0.393-0.003,0.818-0.041,1.301-0.115c0.457-0.071,0.743-0.317,0.783-0.676
	c0.024-0.204-0.033-0.406-0.162-0.567c-0.127-0.16-0.311-0.261-0.516-0.284c-1.004-0.114-2.378-0.473-3.955-0.562
	c-7.306-0.406-19.026-0.283-19.289-0.281c-2.41,0.029-3.48-1.173-3.665-2.211c-0.206-1.163,0.556-2.552,2.409-2.955
	c3.096-0.674,7.291-0.934,11.35-1.186c2.512-0.155,5.093-0.317,7.439-0.571c1.697-0.187,3.182-0.688,4.756-1.219
	c2.081-0.704,4.23-1.43,7.146-1.513l0.232-0.003c8.708-0.104,15.316,7.59,15.382,7.667c0.056,0.063,0.118,0.118,0.188,0.16
	C68.91,64.094,61.153,75.259,59.102,75.229z"/>
<path class="st2" d="M18.861,7.796c0.097,0.001,0.201,0.001,0.308,0c4.215-0.051,15.854-2.274,18.2-3.185
	c1.001-0.389,2.139-0.603,3.285-0.617c1.17-0.014,2.313,0.172,3.307,0.536c4.73,1.74,22.262,13.956,29.139,23.729
	c0.752,1.067,0.986,1.947,0.68,2.544c-0.334,0.654-1.365,1.041-2.828,1.059c-1.537,0.019-3.374-0.361-4.914-1.017l-0.102-0.042
	l-0.102,0.045c-0.298,0.131-0.621,0.199-0.967,0.203c-1.967,0.023-4.225-2.012-5.309-2.988c-0.236-0.213-0.422-0.381-0.547-0.478
	l-0.055-0.042c-1.803-1.395-3.514-2.604-4.769-3.462c0.625-0.1,1.181-0.202,1.683-0.312c2.803-0.609,3.932-2.839,3.598-4.727
	c-0.291-1.632-1.821-3.522-5.184-3.482c-0.39,0.004-13.209,0.201-18.621-0.348c-0.472-0.048-0.828-0.156-1.204-0.271
	c-0.542-0.166-1.101-0.338-2.01-0.326c-0.394,0.003-0.818,0.042-1.3,0.115c-0.458,0.071-0.744,0.318-0.784,0.676
	c-0.024,0.205,0.034,0.406,0.162,0.566c0.128,0.161,0.312,0.262,0.515,0.285c1.006,0.114,2.379,0.473,3.957,0.561
	c7.305,0.408,19.025,0.284,19.289,0.281c2.41-0.028,3.48,1.173,3.664,2.212c0.206,1.163-0.555,2.552-2.41,2.955
	c-3.094,0.674-7.289,0.934-11.348,1.186c-2.512,0.155-5.094,0.317-7.441,0.571c-1.695,0.187-3.182,0.688-4.755,1.22
	c-2.081,0.703-4.229,1.429-7.146,1.512l-0.232,0.003c-8.709,0.104-15.316-7.59-15.382-7.666c-0.056-0.065-0.118-0.119-0.188-0.161
	C9.052,18.931,16.809,7.766,18.861,7.796z"/>
<path class="st2" d="M18.066,29.547v24.641h42.871V29.547H18.066z M24.332,48.158c-0.895-1.008-2.355-1.215-3.479-0.564V36.141
	c1.123,0.649,2.584,0.443,3.479-0.565c0.816-0.921,0.911-2.231,0.328-3.242h11.887c-2.914,1.519-4.971,5.215-4.971,9.534
	s2.058,8.016,4.971,9.533H24.66C25.243,50.391,25.148,49.08,24.332,48.158z M42.666,37.21l-0.471,1.834
	c-0.422-0.179-1.168-0.552-2.337-0.552c-1.055,0-1.396,0.454-1.396,0.909c0,0.535,0.568,0.875,1.947,1.395
	c1.932,0.683,2.71,1.574,2.71,3.035c0,1.444-1.022,2.677-2.888,3.001v1.655h-1.59v-1.541c-1.088-0.049-2.143-0.341-2.76-0.698
	l0.487-1.898c0.682,0.373,1.64,0.714,2.693,0.714c0.925,0,1.558-0.356,1.558-1.006c0-0.616-0.519-1.006-1.719-1.411
	c-1.736-0.584-2.922-1.396-2.922-2.97c0-1.428,1.006-2.548,2.742-2.888v-1.542h1.59v1.429C41.4,36.724,42.131,36.951,42.666,37.21z
	 M47.427,41.867c0-4.319-2.057-8.016-4.97-9.534h11.887c-0.584,1.011-0.488,2.321,0.328,3.242c0.894,1.009,2.355,1.215,3.479,0.565
	v11.453c-1.123-0.65-2.585-0.443-3.479,0.564c-0.816,0.922-0.912,2.232-0.328,3.242H42.457
	C45.37,49.883,47.427,46.187,47.427,41.867z"/>
</svg>
