<?xml version="1.0" encoding="utf-8"?>
<!-- Generator: Adobe Illustrator 16.0.4, SVG Export Plug-In . SVG Version: 6.00 Build 0)  -->
<!DOCTYPE svg PUBLIC "-//W3C//DTD SVG 1.1//EN" "http://www.w3.org/Graphics/SVG/1.1/DTD/svg11.dtd">
<svg version="1.1" id="Layer_1" xmlns="http://www.w3.org/2000/svg" xmlns:xlink="http://www.w3.org/1999/xlink" x="0px" y="0px"
	 width="65px" viewBox="0 0 57.423 82.535" style="enable-background:new 0 0 57.423 82.535;"
	 xml:space="preserve">
<style type="text/css">
<![CDATA[
	*{fill:#02517B;}
]]>
</style>
<path class="st2" d="M48.532,4.098H8.374c-1.929,0-3.524,1.57-3.524,3.526v11.017c0,1.545,1.029,2.857,2.418,3.32v-0.082h42.397
	v0.082c1.388-0.463,2.393-1.775,2.393-3.32V7.624C52.058,5.668,50.488,4.098,48.532,4.098z M10.922,18.461
	c0,0.642-0.541,1.184-1.185,1.184c-0.669,0-1.183-0.542-1.183-1.184V7.805c0-0.67,0.514-1.184,1.183-1.184
	c0.644,0,1.185,0.514,1.185,1.184V18.461z M17.164,18.461c0,0.642-0.536,1.184-1.184,1.184c-0.665,0-1.184-0.542-1.184-1.184V7.805
	c0-0.67,0.519-1.184,1.184-1.184c0.647,0,1.184,0.514,1.184,1.184V18.461z M23.408,18.461c0,0.642-0.533,1.184-1.186,1.184
	c-0.66,0-1.182-0.542-1.182-1.184V7.805c0-0.67,0.521-1.184,1.182-1.184c0.652,0,1.186,0.514,1.186,1.184V18.461z M29.65,18.461
	c0,0.641-0.529,1.184-1.185,1.184c-0.656,0-1.183-0.543-1.183-1.184V7.805c0-0.67,0.526-1.184,1.183-1.184
	c0.655,0,1.185,0.514,1.185,1.184V18.461z M35.894,18.461c0,0.642-0.524,1.184-1.185,1.184c-0.652,0-1.183-0.542-1.183-1.184V7.805
	c0-0.67,0.53-1.184,1.183-1.184c0.66,0,1.185,0.514,1.185,1.184V18.461z M42.137,18.461c0,0.642-0.521,1.184-1.185,1.184
	c-0.647,0-1.183-0.542-1.183-1.184V7.805c0-0.67,0.535-1.184,1.183-1.184c0.664,0,1.185,0.514,1.185,1.184V18.461z M48.379,18.461
	c0,0.642-0.516,1.184-1.184,1.184c-0.644,0-1.184-0.542-1.184-1.184V7.805c0-0.67,0.54-1.184,1.184-1.184
	c0.668,0,1.184,0.514,1.184,1.184V18.461z"/>
<path class="st2" d="M7.268,24.04v50.14c0,1.725,1.596,3.141,3.525,3.141h35.322c1.955,0,3.55-1.416,3.55-3.141V45.299v-2.652V24.04
	H7.268z M44.892,61.399c0,1.988-1.612,3.6-3.6,3.6H16.159c-1.988,0-3.6-1.611-3.6-3.6V37.266c0-1.988,1.612-3.6,3.6-3.6h25.133
	c1.988,0,3.6,1.611,3.6,3.6V61.399z"/>
<path class="st2" d="M36.837,38.465c-4.216,2.805-11.173,15.522-11.173,15.522s-3.938-5.954-6.045-5.897
	c-1.482,0.041-5.39,3.801-4.023,4.378c4.936,2.081,10.543,8.42,10.869,7.823c2.953-5.405,9.661-13.279,15.455-17.585
	C43.247,41.718,38.214,37.548,36.837,38.465z"/>

</svg>
