<?xml version="1.0" encoding="utf-8"?>
<!-- Generator: Adobe Illustrator 16.0.4, SVG Export Plug-In . SVG Version: 6.00 Build 0)  -->
<!DOCTYPE svg PUBLIC "-//W3C//DTD SVG 1.1//EN" "http://www.w3.org/Graphics/SVG/1.1/DTD/svg11.dtd">
<svg version="1.1" id="Layer_1" xmlns="http://www.w3.org/2000/svg" xmlns:xlink="http://www.w3.org/1999/xlink" x="0px" y="0px"
	 width="70px" viewBox="0 0 68.59 90.385" style="enable-background:new 0 0 68.59 90.385;"
	 xml:space="preserve">
<style type="text/css">
<![CDATA[
	*{;fill:#02517B;}
]]>
</style>
<path d="M6.272,39.738v42.03c0,2.13,1.727,3.856,3.856,3.856h48.333c2.13,0,3.855-1.727,3.855-3.856v-42.03H6.272z M37.194,62.917
	v6.899c0,1.603-1.298,2.899-2.898,2.899c-1.603,0-2.9-1.297-2.9-2.899v-6.899c-1.664-0.99-2.783-2.804-2.783-4.881
	c0-3.138,2.545-5.683,5.684-5.683c3.137,0,5.683,2.545,5.683,5.683C39.979,60.113,38.859,61.926,37.194,62.917z M17.932,29.032
	c0.003-4.532,1.826-8.596,4.794-11.572c2.974-2.967,7.038-4.79,11.57-4.792c4.532,0.002,8.596,1.824,11.571,4.792
	c2.969,2.975,4.789,7.039,4.792,11.571V39.08h7.908V29.032C58.565,15.626,47.702,4.762,34.296,4.759
	C20.889,4.762,10.025,15.626,10.023,29.032V39.08h7.908V29.032z"/>
</svg>
