<?xml version="1.0" encoding="utf-8"?>
<!-- Generator: Adobe Illustrator 16.0.4, SVG Export Plug-In . SVG Version: 6.00 Build 0)  -->
<!DOCTYPE svg PUBLIC "-//W3C//DTD SVG 1.1//EN" "http://www.w3.org/Graphics/SVG/1.1/DTD/svg11.dtd">
<svg version="1.1" id="Layer_1" xmlns="http://www.w3.org/2000/svg" xmlns:xlink="http://www.w3.org/1999/xlink" x="0px" y="0px"
	 width="55px" viewBox="0 0 96.154 116.025" enable-background="new 0 0 96.154 116.025"
	 xml:space="preserve">
   
<style type="text/css">
<![CDATA[
	#sheild{fill:#face62;}
]]>
</style>   
   
<path id="shield" fill="#FACE62" d="M77.676,20.625c-0.021,0.002-0.073,0.004-0.088,0.006c-6.973,0.735-14.394,0.021-20.658-3.308
	c-3.676-1.954-5.652-4.594-8.343-7.603c0.978,1.1-6.274,6.36-7.114,6.968c-4.297,3.108-9.678,4.614-14.948,4.693
	c-2.722,0.041-5.448-0.147-8.14-0.556c-0.788-0.12-8.396-1.334-8.395-1.908C9.946,34.174,9.998,49.432,9.998,64.689
	c0,1.231,0,2.465,0,3.696c0.832,4.388,2.913,8.955,6.202,13.577c3.145,4.42,7.461,9.02,12.853,13.67
	c7.69,6.631,14.941,11.112,15.247,11.301l4.305,2.646l4.307-2.646c0.305-0.188,7.564-4.67,15.271-11.316
	c5.398-4.658,9.796-9.264,12.94-13.689c3.271-4.607,5.434-9.157,6.266-13.531c0,0,0-48.948,0-49.551
	C87.387,19.56,78.796,20.506,77.676,20.625z M44.494,99.916c-0.26-0.159-6.423-3.961-12.962-9.59
	c-4.583-3.947-8.254-7.852-10.929-11.604c-2.798-3.925-4.569-7.804-5.279-11.531c-0.001-1.046-0.002-2.094-0.003-3.141
	c-0.011-12.962-0.065-25.925-0.038-38.887c-0.001,0.488,6.464,1.514,7.134,1.615c2.287,0.346,4.603,0.503,6.916,0.467
	c4.477-0.071,9.048-1.354,12.696-3.998c0.714-0.518,6.06-4.675,6.04-5.925c0.083,5.095,0.085,84.84,0.085,84.84L44.494,99.916z"/>
</svg>
