<?xml version="1.0" encoding="utf-8"?>
<!-- Generator: Adobe Illustrator 16.0.4, SVG Export Plug-In . SVG Version: 6.00 Build 0)  -->
<!DOCTYPE svg PUBLIC "-//W3C//DTD SVG 1.1//EN" "http://www.w3.org/Graphics/SVG/1.1/DTD/svg11.dtd">
<svg version="1.1" id="Layer_1" xmlns="http://www.w3.org/2000/svg" xmlns:xlink="http://www.w3.org/1999/xlink" x="0px" y="0px"
	 width="55px" viewBox="2 365.5 51.75 62.25" style="enable-background:new 2 365.5 51.75 62.25;"
	 xml:space="preserve">
<style type="text/css">
<![CDATA[
	*{fill:#BFD5DF;}
]]>
</style>
<path id="shield" d="M44.431,374.614c-0.013,0.001-0.042,0.002-0.05,0.003c-3.989,0.42-8.234,0.012-11.816-1.892
	c-2.104-1.118-3.233-2.628-4.773-4.349c0.56,0.629-3.588,3.638-4.069,3.985c-2.458,1.778-5.536,2.639-8.55,2.685
	c-1.557,0.023-3.116-0.084-4.656-0.318c-0.451-0.069-4.802-0.763-4.802-1.092c-0.025,8.727,0.004,17.455,0.004,26.182
	c0,0.704,0,1.409,0,2.113c0.476,2.511,1.667,5.123,3.548,7.767c1.799,2.528,4.268,5.159,7.352,7.819
	c4.399,3.793,8.546,6.355,8.721,6.464l2.463,1.514l2.463-1.514c0.174-0.107,4.326-2.671,8.734-6.473
	c3.088-2.664,5.604-5.299,7.402-7.83c1.871-2.635,3.108-5.238,3.584-7.74c0,0,0-27.998,0-28.343
	C49.985,374.005,45.071,374.546,44.431,374.614z M25.451,419.969c-0.149-0.091-3.674-2.266-7.415-5.485
	c-2.621-2.258-4.721-4.491-6.251-6.638c-1.6-2.245-2.613-4.464-3.02-6.596c0-0.599-0.001-1.197-0.001-1.797
	c-0.006-7.414-0.037-14.829-0.022-22.243c0,0.279,3.698,0.866,4.081,0.924c1.309,0.198,2.633,0.288,3.956,0.267
	c2.561-0.041,5.176-0.774,7.262-2.287c0.408-0.296,3.466-2.674,3.455-3.389c0.047,2.915,0.048,48.529,0.048,48.529L25.451,419.969z"
	/>
</svg>
