<?xml version="1.0" encoding="utf-8"?>
<!-- Generator: Adobe Illustrator 16.0.4, SVG Export Plug-In . SVG Version: 6.00 Build 0)  -->
<!DOCTYPE svg PUBLIC "-//W3C//DTD SVG 1.1//EN" "http://www.w3.org/Graphics/SVG/1.1/DTD/svg11.dtd">
<svg version="1.1" id="Layer_1" xmlns="http://www.w3.org/2000/svg" xmlns:xlink="http://www.w3.org/1999/xlink" x="0px" y="0px"
	 width="100px" viewBox="0 0 112.167 74.848" style="enable-background:new 0 0 112.167 74.848;"
	 xml:space="preserve">
<style type="text/css">
<![CDATA[
	*{fill:#FACE62;}
]]>
</style>
<g>
	<path class="st2" d="M98.469,55.295H13.813L0.932,69.346h110.42L98.469,55.295z M40.5,67.355l3.649-3.98h23.984l3.649,3.98H40.5z"
		/>
	<polygon class="st2" points="108.184,74.054 4.1,74.054 0.932,70.219 111.352,70.219 	"/>
	<path class="st2" d="M13.813,1.925v51.069h84.655V1.925H13.813z M56.142,2.833c0.645,0,1.168,0.523,1.168,1.169
		c0,0.645-0.523,1.168-1.168,1.168c-0.646,0-1.169-0.523-1.169-1.168C54.973,3.356,55.496,2.833,56.142,2.833z M91.605,48.853
		H20.678V6.066h70.928V48.853z"/>
</g>
<g>
	<path d="M55.811,32.958c-0.061,0.022-0.121,0.047-0.18,0.074v0.002C55.704,33.003,55.811,32.958,55.811,32.958z"/>
	<path d="M72.137,31.276l-5.67-3.273l5.67-3.272c0.829-0.479,1.113-1.539,0.635-2.368l-3.43-5.94
		c-0.479-0.83-1.539-1.113-2.368-0.635l-5.67,3.273v-6.547c0-0.957-0.775-1.733-1.733-1.733h-6.859
		c-0.957,0-1.733,0.776-1.733,1.733v6.547l-5.67-3.273c-0.829-0.479-1.889-0.195-2.368,0.635l-3.43,5.94
		c-0.478,0.829-0.194,1.889,0.635,2.368l5.67,3.272l-5.67,3.273c-0.829,0.479-1.112,1.539-0.635,2.368l3.43,5.94
		c0.479,0.829,1.539,1.113,2.368,0.635l5.67-3.273v6.547c0,0.957,0.776,1.733,1.733,1.733h6.859c0.958,0,1.733-0.776,1.733-1.733
		v-6.547l5.67,3.273c0.829,0.479,1.889,0.194,2.368-0.635l3.43-5.94C73.25,32.815,72.966,31.756,72.137,31.276z M56.16,13.593
		c1.043,0,1.89,0.847,1.89,1.892c0,0.667-0.347,1.252-0.869,1.588c0.042,0.096,0.063,0.201,0.06,0.312l-0.032,0.868
		c-0.096,0.036-0.188,0.074-0.277,0.111c-0.234,0.098-0.456,0.188-0.661,0.215c-0.394,0.05-0.789,0.136-1.174,0.256l-0.055-1.45
		c-0.004-0.118,0.021-0.229,0.067-0.329c-0.506-0.339-0.84-0.916-0.84-1.57C54.269,14.439,55.115,13.593,56.16,13.593z
		 M56.304,42.258c-0.01,0.208-0.316,0.208-0.325,0L55.91,40.42c0.158-0.065,0.315-0.138,0.471-0.216L56.304,42.258z M56.674,39.428
		c-0.784,0.515-1.699,0.785-2.606,1.023c-0.123,0.033-0.318,0.004-0.294-0.121c0.922-0.288,1.691-0.771,2.456-1.351
		c0.389-0.294,0.752-0.641,0.967-1.078c0.356-0.724,0.134-1.43-0.39-1.977l0.048-1.256c0.551,0.459,1.052,0.953,1.275,1.705
		C58.496,37.605,57.666,38.777,56.674,39.428z M55.628,32.956c0.086-0.104,0.256-0.275,0.495-0.5
		c0.179-0.167,0.369-0.325,0.567-0.484l-0.229,6.08c-0.143,0.165-0.323,0.331-0.552,0.504c-0.024,0.019-0.046,0.034-0.069,0.052
		l-0.21-5.573c-0.025,0.012-0.047,0.021-0.058,0.025c0.02-0.011,0.038-0.02,0.058-0.027L55.628,32.956z M58.445,29.444
		c-0.598,1.149-1.771,1.769-2.685,2.625c-0.29,0.272-0.599,0.636-0.452,1.061c0.018,0.05,0.041,0.099,0.066,0.145l0.061,1.628
		c-0.519-0.356-0.999-0.75-1.238-1.355c-0.322-0.815,0-1.657,0.564-2.275c0.436-0.478,0.978-0.844,1.475-1.258
		c0.823-0.687,1.72-1.857,0.898-2.766l0.057-1.528c0.742,0.424,1.282,1.069,1.485,1.811C58.84,28.128,58.786,28.788,58.445,29.444z
		 M55.188,21.28c0.314-0.169,0.633-0.316,0.953-0.439c0.132-0.05,0.28-0.074,0.452-0.074c0.17,0,0.35,0.024,0.518,0.054
		l-0.289,7.669c-0.158,0.352-0.483,0.749-0.925,1.117c-0.124,0.104-0.251,0.203-0.383,0.307L55.188,21.28z M59.64,20.013
		c-0.331,0.17-0.71,0.36-1.079,0.425c-0.39,0.067-0.79-0.025-1.171-0.104c-0.476-0.097-0.974-0.167-1.438,0.012
		c-0.436,0.168-0.856,0.37-1.262,0.604c-1.232,0.712-1.9,2.208-0.688,3.355c0.297,0.281,0.665,0.469,1.06,0.621l0.047,1.273
		c-0.33-0.117-0.656-0.241-0.961-0.41c-1.027-0.565-1.775-1.559-1.872-2.747c-0.193-2.369,1.986-3.674,4.062-3.938
		c0.626-0.079,1.176-0.536,1.815-0.512c0.507,0.019,0.999,0.315,1.434,0.601c0.088,0.059,0.173,0.116,0.257,0.172
		c0.048,0.032,0.099,0.065,0.133,0.113C60.139,19.702,59.807,19.928,59.64,20.013z"/>
</g>
</svg>
