<?xml version="1.0" encoding="utf-8"?>
<!-- Generator: Adobe Illustrator 16.0.4, SVG Export Plug-In . SVG Version: 6.00 Build 0)  -->
<!DOCTYPE svg PUBLIC "-//W3C//DTD SVG 1.1//EN" "http://www.w3.org/Graphics/SVG/1.1/DTD/svg11.dtd">
<svg version="1.1" id="Layer_1" xmlns="http://www.w3.org/2000/svg" xmlns:xlink="http://www.w3.org/1999/xlink" x="0px" y="0px"
	 width="104px" height="78.682px" viewBox="0 0 104 78.682" style="enable-background:new 0 0 104 78.682;" xml:space="preserve">
<style type="text/css">
<![CDATA[
	*{fill:#FACE62;}
]]>
</style>
<g>
	<g>
		<path class="st1" d="M71.365,48.807c0.2,0.769,0.794-0.123,0.794-0.123s-3.374-6.766-4.977-7.012
			c-1.604-0.241-0.84,1.314-0.571,1.663C67.719,44.768,71.009,47.455,71.365,48.807z"/>
	</g>
	<path class="st1" d="M79.373,37.487c-0.016-0.003-0.041,0.018-0.063,0.023c-0.006-0.009-0.013-0.006-0.021,0.007
		c-0.216,0.074-0.538,0.492-0.708,0.59c-0.425,0.248-0.912,0.379-1.382,0.51c-1.329,0.379-2.629,0.789-3.745,1.638
		c-1.115,0.851-1.756,2.015-1.945,3.398c-0.082,0.6-0.292,2.266,0.196,2.824c-0.004,0.007-0.01,0.013-0.013,0.022
		c0.009,0.003,0.021,0.002,0.032,0.006c0.015,0.012,0.021,0.032,0.032,0.043c0.005,0.005,0.011,0.01,0.018,0.015
		c0.009-0.015,0.019-0.025,0.024-0.04c0.376,0.102,0.955-0.096,1.291-0.164c0.771-0.148,1.562-0.292,2.311-0.525
		c1.178-0.361,2.03-1.335,2.606-2.386c0.472-0.856,0.8-1.797,1.007-2.752c0.113-0.533,0.201-1.072,0.271-1.614
		c0.045-0.354,0.085-0.715,0.086-1.071c0-0.05-0.012-0.3-0.037-0.431C79.345,37.549,79.362,37.521,79.373,37.487z"/>
	<g>
		<path class="st1" d="M85.031,49.273C85.031,49.273,84.867,49.157,85.031,49.273c-4.822-3.403-7.823-1.32-12.51,0.148
			c-2.319,0.728-5.484-1.584-8.199-1.139c-2.123,0.352-4.152,1.402-5.261,3.299c-3.072,5.256,0.574,18.178,4.229,22.712
			c2.371,2.943,6.597,0.271,9.595,0.751c4.622,0.743,7.738,1.688,10.572-3.002C86.518,66.97,91.381,53.755,85.031,49.273z"/>
	</g>
</g>
<path class="st1" d="M31.791,44.384c-8.797,0-15.928,7.132-15.928,15.929s7.131,15.929,15.928,15.929s15.927-7.132,15.927-15.929
	S40.588,44.384,31.791,44.384z M42.234,63.038h-7.719v7.719h-5.45v-7.719h-7.719v-5.45h7.719v-7.719h5.45v7.719h7.719V63.038z"/>
<g>
	<path class="st2" d="M67.76,33.127c0,1.421-1.151,2.573-2.572,2.573H38.033c-1.42,0-2.572-1.152-2.572-2.573V5.977
		c0-1.42,1.152-2.572,2.572-2.572h27.154c1.421,0,2.572,1.152,2.572,2.572V33.127z"/>
	<g>
		<g>
			<path class="st3" d="M40.857,11.918c-1.376,0-2.49-1.113-2.49-2.489l0,0c0-1.374,1.114-2.49,2.49-2.49h6.999
				c1.376,0,2.49,1.116,2.49,2.49l0,0c0,1.376-1.114,2.489-2.49,2.489H40.857z"/>
			<path class="st2" d="M44.217,7.756h3.378c0.928,0,1.673,0.75,1.673,1.673l0,0c0,0.925-0.745,1.671-1.673,1.671h-3.38
				L44.217,7.756z"/>
		</g>
		<g>
			<path class="st3" d="M40.857,22.042c-1.376,0-2.49-1.115-2.49-2.489l0,0c0-1.375,1.114-2.49,2.49-2.49h6.999
				c1.376,0,2.49,1.115,2.49,2.49l0,0c0,1.374-1.114,2.489-2.49,2.489H40.857z"/>
			<path class="st2" d="M44.217,17.88h3.378c0.928,0,1.673,0.749,1.673,1.673l0,0c0,0.923-0.745,1.672-1.673,1.672h-3.38
				L44.217,17.88z"/>
		</g>
		<g>
			<path class="st3" d="M40.857,32.166c-1.376,0-2.49-1.116-2.49-2.49l0,0c0-1.374,1.114-2.49,2.49-2.49h6.999
				c1.376,0,2.49,1.116,2.49,2.49l0,0c0,1.374-1.114,2.49-2.49,2.49H40.857z"/>
			<path class="st2" d="M44.217,28.003h3.378c0.928,0,1.673,0.75,1.673,1.673l0,0c0,0.925-0.745,1.674-1.673,1.674h-3.38
				L44.217,28.003z"/>
		</g>
	</g>
	<g>
		<g>
			<path class="st3" d="M55.533,11.918c-1.376,0-2.488-1.113-2.488-2.489l0,0c0-1.374,1.112-2.49,2.488-2.49h7.001
				c1.372,0,2.488,1.116,2.488,2.49l0,0c0,1.376-1.116,2.489-2.488,2.489H55.533z"/>
			<path class="st2" d="M58.893,7.756h3.38c0.925,0,1.672,0.75,1.672,1.673l0,0c0,0.925-0.747,1.671-1.672,1.671h-3.38V7.756z"/>
		</g>
		<g>
			<path class="st3" d="M55.533,22.042c-1.376,0-2.488-1.115-2.488-2.489l0,0c0-1.375,1.112-2.49,2.488-2.49h7.001
				c1.372,0,2.488,1.115,2.488,2.49l0,0c0,1.374-1.116,2.489-2.488,2.489H55.533z"/>
			<path class="st2" d="M58.893,17.88h3.38c0.925,0,1.672,0.749,1.672,1.673l0,0c0,0.923-0.747,1.672-1.672,1.672h-3.38V17.88z"/>
		</g>
		<g>
			<path class="st3" d="M55.533,32.166c-1.376,0-2.488-1.116-2.488-2.49l0,0c0-1.374,1.112-2.49,2.488-2.49h7.001
				c1.372,0,2.488,1.116,2.488,2.49l0,0c0,1.374-1.116,2.49-2.488,2.49H55.533z"/>
			<path class="st2" d="M58.893,28.003h3.38c0.925,0,1.672,0.75,1.672,1.673l0,0c0,0.925-0.747,1.674-1.672,1.674h-3.38V28.003z"/>
		</g>
	</g>
</g>
</svg>
