<?xml version="1.0" encoding="utf-8"?>
<!-- Generator: Adobe Illustrator 16.0.4, SVG Export Plug-In . SVG Version: 6.00 Build 0)  -->
<!DOCTYPE svg PUBLIC "-//W3C//DTD SVG 1.1//EN" "http://www.w3.org/Graphics/SVG/1.1/DTD/svg11.dtd">
<svg version="1.1" id="Layer_1" xmlns="http://www.w3.org/2000/svg" xmlns:xlink="http://www.w3.org/1999/xlink" x="0px" y="0px"
	 width="53px" viewBox="0 0 68.59 90.385" style="enable-background:new 0 0 68.59 90.385;"
	 xml:space="preserve">
<style type="text/css">
<![CDATA[
	*{fill:#FACE62;}
]]>
</style>
<path d="M61.631,50.243c-0.136-0.827-0.317-1.969-0.487-3.254c-0.34-2.575-0.656-5.703-0.443-8.148
	c0.055-0.61,0.143-1.18,0.278-1.701c0.174-0.006,0.176-0.016,0.004-0.012c0.109-0.383,0.179-0.748,0.21-1.096
	c0.139-1.576-0.493-2.778-1.718-3.51c-1.224-0.731-3.051-0.98-5.246-0.634v-0.001c-4.216,0.682-7.474,3.178-8.071,6.103
	c-0.029,0.138-0.059,0.275-0.087,0.413c-7.624,0.651-15.295,0.651-22.919,0l-0.086-0.413c-0.598-2.92-3.848-5.413-8.056-6.099
	c-0.002,0-0.003,0-0.005-0.001c-0.009-0.002-0.018-0.003-0.027-0.005c-4.383-0.689-7.242,1-6.948,4.146
	c0.031,0.348,0.1,0.711,0.214,1.107c0.137,0.521,0.224,1.09,0.278,1.7c0.308,3.599-0.506,8.739-0.911,11.282
	c-0.12,0.734,0.333,7.385,0.619,10.372c0.678,6.995,4.007,13.548,8.547,18.071c4.567,4.551,10.324,7.17,16.585,7.174h2.499
	c6.261-0.004,12.019-2.623,16.586-7.174c4.54-4.523,7.868-11.076,8.547-18.071C61.279,57.507,61.699,50.655,61.631,50.243z
	 M37.131,60.104l-0.245,0.147v6.898c-0.003,1.256-1.02,2.272-2.274,2.274c-1.256-0.002-2.272-1.019-2.274-2.274v-6.897l-0.245-0.147
	c-1.45-0.862-2.422-2.437-2.422-4.243c0.005-2.729,2.212-4.938,4.941-4.941c2.729,0.004,4.936,2.213,4.941,4.941
	C39.553,57.669,38.581,59.241,37.131,60.104z M15.083,31.139h0.009l0.039,0.006c1.747,0.29,3.356,0.871,4.709,1.675v-6.26
	c0.001-4.094,1.646-7.762,4.327-10.447c2.685-2.68,6.353-4.324,10.444-4.326c4.093,0.002,7.76,1.646,10.446,4.326
	c2.68,2.686,4.323,6.354,4.325,10.447v6.26c1.356-0.808,2.971-1.389,4.725-1.678l0.877-0.141v0.031
	c0.382-0.035,0.753-0.053,1.113-0.053c0.144,0,0.284,0.004,0.426,0.01v-4.43c-0.003-12.104-9.81-21.911-21.912-21.914
	c-12.103,0.003-21.909,9.811-21.912,21.912v4.433c0.141-0.006,0.279-0.012,0.424-0.013C13.742,30.978,14.396,31.03,15.083,31.139z"
	/>
</svg>
