<?xml version="1.0" encoding="utf-8"?>

<!DOCTYPE svg PUBLIC "-//W3C//DTD SVG 1.1//EN" "http://www.w3.org/Graphics/SVG/1.1/DTD/svg11.dtd">


<svg version="1.1" id="Large" xmlns="http://www.w3.org/2000/svg" xmlns:xlink="http://www.w3.org/1999/xlink" x="0px" y="0px"
	 width="850px" height="524.5px" viewBox="-134.625 -127 850 524.5" enable-background="new -134.625 -127 850 524.5"
	 xml:space="preserve">
   
   
<g id="map" inkscape:version="0.48.4 r9939" sodipodi:docname="usa-labels-boxes.svg" xmlns:dc="http://purl.org/dc/elements/1.1/" xmlns:inkscape="http://www.inkscape.org/namespaces/inkscape" xmlns:osb="http://www.openswatchbook.org/uri/2009/osb" xmlns:rdf="http://www.w3.org/1999/02/22-rdf-syntax-ns#" xmlns:cc="http://creativecommons.org/ns#" xmlns:svg="http://www.w3.org/2000/svg" xmlns:sodipodi="http://sodipodi.sourceforge.net/DTD/sodipodi-0.dtd">

<a xlink:href="/svg/index.html">
	<path id="HI" inkscape:connector-curvature="0" inkscape:label="#HI" fill="red" stroke="#000000" stroke-width="0.2822" d="
		M90.737,310.489l-3.146,1.595l-0.621,3.014l5.007,1.771l1.685-0.354l1.107-3.146l-0.621-2.658L90.737,310.489L90.737,310.489z
		 M82.14,315.186l-1.772,0.354l-1.418,2.925l1.95-0.133l1.551-2.525L82.14,315.186L82.14,315.186z M116.922,317.8l-4.52,2.525
		l-0.442,1.463l3.19,4.209l1.95-0.354l0.886-0.441l1.197,0.975l2.969-0.311l0.709-1.196l-2.394-1.284l-1.685-2.881L116.922,317.8
		L116.922,317.8z M129.462,326.397l-0.975,1.595l4.474,1.063l3.501,0.088l2.039-1.282l0.177-1.022l-4.919-0.266l-0.532,0.398
		L129.462,326.397L129.462,326.397z M140.186,328.302l-1.685,2.394l4.166,5.096l1.993,1.019l3.855-0.93l2.748-1.596l-0.088-1.505
		l-3.589-2.04l-3.544-0.709L140.186,328.302z M132.919,330.873l0.043,1.019l1.729,3.013l2.437-1.019l0.177-1.331l-1.374-1.595
		L132.919,330.873L132.919,330.873z M153.699,341.239l-1.241,1.108l0.354,1.639l1.375,1.374l-0.354,0.796l-1.552,2.525l-1.772,0.843
		l0.222,2.039l1.772,1.329l1.506,4.431l-0.399,1.95l0.442,3.589l2.969,1.905l1.418,0.089l1.685-2.438l1.816-2.658l2.394-1.554
		l1.197,0.49l3.278-1.331l2.969-2.747l0.222-1.063l-3.324-1.86l-1.772-3.412l-1.374-1.859l-2.792-1.507l-6.247-2.522
		L153.699,341.239L153.699,341.239z"/>
</a>   
    
	<path id="AK" inkscape:connector-curvature="0" inkscape:label="#AK" fill="#C6C6C6" stroke="#000000" stroke-width="0.2822" d="
		M-13.905,249.853l7.145,45.915l0.946,0.379l1.654-0.193l0.681-0.739l1.383-0.234l0.336,1.552l4.296,3.021l0.48,1.346l1.647-1.351
		l0.332-0.147l-0.089-1.684l0.64-1l0.591-0.19l0.912-0.958l1.821,0.853l0.596,1.507l1.133,0.435l0.813,1.2l2.225,0.606l2.328,2.908
		l1.801,1.837l1.446,1.271l1.097,1.864l2.831,0.503l2.945,0.661l0.892,2.26l0.523,1.605l-0.229,1.915l-0.755,1.381l-0.934-0.288
		l-1.041-1.521l-1.594-0.531l-1.047-0.447l-0.364,0.508l1.015,1.343l0.405,1.984l-0.563,0.363l-1.204-0.866l-1.233-0.502
		l0.398,0.823l0.842,0.838l-0.362,0.509c0,0-0.459-0.1-0.774-0.403c-0.314-0.306-1.415-1.636-1.415-1.636l-0.711-1.128
		c0,0-0.061,0.724-0.435,0.61c-0.375-0.116-0.817-0.666-0.817-0.666l0.784-1.206l-0.901-0.65l-0.43-2.692l-0.432,0.075l-0.141,1.896
		L15,313.151l-0.836-1.912l-0.666-1.938l-0.474-0.188l0.658,3.014l0.097,0.606l-0.888-0.561l-2.414-2.895l-1.165-0.069l-0.663-1.941
		l-1.115-1.418l-0.961-0.458l-0.194-1.219l1.012-0.883l-0.288-0.131l-1.327,0.582l-2.022-0.997l-1.63-1.33l-2.813-0.953
		l-2.382-1.026l0.414-1.855l-0.139-0.866l-0.811,1.031l-1.458,0.87l-2.084-0.271l-3.231-0.791l-2.938,0.499l-0.303,0.319
		l-3.787-1.501l-1.151,0.017l-1.968-2.88l-1.873,0.497l-1.775,1.104l0.647,2.393l0.354-1.668l0.545,0.087l-0.403,2.479l1.493-1.77
		l0.483,0.809l-1.698,2.697l-0.719-0.058l-0.426-0.997l-0.76-0.318l-0.594,0.726l-1.622-0.706l-1.462,1.406l-0.77,1.291
		l-1.633,1.438l-2.52,0.336l-0.44-1.085l1.932-0.685l-0.111-0.693l-1.265-0.143l0.311-1.392l0.875-2.289l-0.151-0.958l0.017-0.448
		l2.138-1.612l0.63,0.606l1.468-0.249l-0.913-1.27l-2.015,0.162l-2.443,1.929l-1.004,2.045l-0.728,1.552l-0.412,1.32l-2.121,1.161
		l-1.419,1.672l-0.034,0.896l1.293,0.317l0.612,1.058l-1.191,1.984l-3.095,2.847l-3.786,2.965l-1.027,0.796l-2.753,1.095
		l-2.657,1.697l1.061,0.537l-0.652,0.914l-0.162,0.653l-1.553-0.274l-1.714,0.384l-0.238,1.288l-0.518,0.087l-0.035-1.332
		l-1.789,1.018l-1.472,0.787l-1.924-0.387l-1.39,1.307l-1.727,0.294l-1.012,0.887l-0.794,0.58l-1.151,0.015l-1.48-0.376
		l-1.153,0.557l-0.435,0.608l-0.961-0.462l-0.167-1.04l1.532-0.977l3.425-0.224l2.193-1.265l0.943-1.319l1.5-0.615l0.88-0.595
		l1.483-0.164l0.974,0.552l0.49-0.264l0.974-1.682l1.559-0.8l1.758-0.656l0.664-0.29l0.387,0.204l0.433-0.074l0.371-2.116
		l2.036-1.149l0.718-2.174l0.822-2.636l0.739-0.93l-0.049-1.419l-0.753,0.842l-1.758,0.653l-0.555-1.243l-0.719-0.059l-0.436,0.612
		l0.163,1.579l-0.791,0.044l-1.276-2.996l-0.58,0.812l-0.646-0.158l-0.339-1.014l-2.146,0.454l-1.026,0.798l-1.411,0.061
		l0.652-0.916l0.037-1.437l-0.512-0.983l0.695-0.653l0.678-0.206l-0.498-0.897l-0.375-2.344l-0.601-0.437l-0.308,0.857l-3.282,0.558
		l-0.889-0.562l-0.678-2.029l-1.427-1.72l-0.083-0.521l1.054-0.623l-0.093-1.146l0.507-0.712l-0.472-0.188l-0.649,0.38l-0.841-1.377
		l0.089-2.78l2.142-2.15l1.243-1.101l0.717-2.177l1.358-0.944l1.479,0.377l0.38,1.273l1.269-0.394l1.521-1.595l0.918,0.201
		l0.573,0.259l0.865-0.147l1.099-0.899l0.057-2.421c0,0-0.077-1.592,0.228-1.913c0.304-0.32,0.436-0.609,0.436-0.609l-0.771-0.941
		l-1.313,0.673l-1.658,0.726l-1.077-0.086l-2.053-0.632l-2.693,0.366l-2.219-1.676l-0.073-2.133l0.137-1.362l-1.276-0.764
		l-1.355-1.822l0.19-0.479l3.587-0.875l1.123-0.191l0.601,0.435l0.346-0.058l-0.226-0.855l2.019-0.701l1.411-0.061l0.875,0.479
		l-0.598,1.264l-0.134,0.825l1.607,0.62l2.831,0.503l0.867-0.681l-1.584-2.142l-0.795-1.649l0.449-0.523l-1.981-0.738l-0.356-0.561
		l0.121-0.916l-0.764-2.014l-1.958-2.257l-1.656-2.04l1.388-1.307l1.729-0.294l1.005,0.188l2.232-0.466l1.683-2.25l0.341-1.754
		l1.779-1.64l0.947,0.375l1.414-0.597l1.806-1.467l0.591-0.189l0.588,0.347l2.405-0.496l1.205-1.904l0.604-0.101l2.108,0.981
		l1.216,0.953l-0.162,0.654l0.442,0.549l0.727-1.014l2.101-0.18l0.492,1.972l1.162,0.606l3.856-0.299l3.73,1.688l0.695-0.653
		l2.986,0.921l1.068-0.537l0.968-0.613l2.758,0.604L-13.905,249.853L-13.905,249.853z M-72.936,275.837l1.579,2.678l-0.002,0.537
		l-1.582,0.089l-1.297-2.011l-1.075-0.62l-1.296,0.217l-0.308-1.376l0.743-1.465l0.813,1.203l0.903,0.65L-72.936,275.837
		L-72.936,275.837z M-71.45,294.062l2.056,0.096l2.07,0.187l0.514,0.447l-0.544,2.145l-1.655,0.194l-2.12-1.606L-71.45,294.062
		L-71.45,294.062z M-83.715,288.376l0.827,1.288l0.743,0.767l-0.534,0.536l-1.387-1.461l-0.166-1.041L-83.715,288.376z
		 M-84.793,328.902l1.62-1.523l1.731-0.828l1.411-0.063l0.398,0.825l1.078,0.089l0.87-1.219l-0.31-0.842l1.414-0.596l1.776,1.128
		l-0.453,1.058l-2.235,1.005l-1.51-0.011l-2.084-0.271l-2.208,1.177l-0.836,0.324l-0.659-0.246v-0.005L-84.793,328.902
		L-84.793,328.902z M-59.003,322.03l1.029,0.896l0.985-1.058l-0.888-0.564L-59.003,322.03z M-57.186,323.419l0.411-1.322l1.15-0.014
		l-0.267,1.116L-57.186,323.419L-57.186,323.419z M-44.739,320.237l0.93,0.825l0.421-0.696l-0.598-0.971L-44.739,320.237z
		 M-41.142,312.754l1.104,3.026l1.625,0.17l2.429-2.019l2.111-1.786l-1.072-1.156l0.051-1.348l-1.012,0.886l-1.625-0.171
		l0.767-0.754l1.105,0.261l1.921-1.308l0.135-0.826l-1.366-0.212l0.266-1.116l-1.301,1.291l-2.2,2.334l-2.342,2.005L-41.142,312.754
		L-41.142,312.754z M-20.21,298.227l1.171-1.001l-0.671-0.868l-0.867,0.681L-20.21,298.227z"/>
	<path id="FL" inkscape:connector-curvature="0" inkscape:label="#FL" fill="#C6C6C6" stroke="#000000" stroke-width="0.2822" d="
		M497.32,233.05l2.113,5.721l3.387,7.585l4.655,7.229l3.237,4.854l4.105,4.167l3.393,2.787l1.409,2.246l-0.853,1.074l-0.593,1.061
		l2.637,5.788l2.448,2.19l2.29,4.132l3.085,4.479c5.898,19.541,0.623,23.211-7.621,36.595c-4.148,6.737-7.162-8.204-9.599-8.282
		l-0.593,1.062l-2.639-3.339l-0.665-2.801l-2.235-3.104l-1.47-0.825c-1.352,1.941-1.44-5.401-4.409-10.312
		c-2.221-3.681-7.286-2.356-8.606-4.095c-3.388-4.437-0.906-7.83-1.391-10.279c-0.183-0.921-5.101,2.232-5.53,0.16
		c-0.216-1.062,2.329-9.898,2.163-13.06l-2.611-2.827l-1.163-2.389l-4.193-0.813l-1.581-0.436l-1.396-1.985l-2.786-1.146
		l-1.044-2.65l-2.24-0.656l-2.094-2.856l-3.426-0.982l-2.393-1.034l-2.068,0.108l-3.204,0.807l-0.05,1.55l0.687,0.736l-0.341,0.92
		l-2.465-0.005l-2.83,2.981l-2.77,1.686l-3.102,0.16l-2.536,1.159l-0.371-2.167l-1.374-1.476l-2.379-0.78l-1.352-1.09l-6.633-2.748
		l-6.155-1.099l-3.468,0.692l-4.766,0.632l-4.701,1.916l-2.76,0.631l-0.521-6.385l-2.151-1.435l-1.498-1.339l0.134-2.453
		l8.099-1.446l20.328-3.365l5.41-0.793l4.359-0.003l2.229,2.979l1.228,1.093l6.502,0.077l8.635-0.961l17.17-1.915l4.331-0.76
		l4.096-0.05l0.463,2.293l1.819,0.551v-3.688l-1.396-3.253l0.988-1.197l4.464,0.131L497.32,233.05L497.32,233.05L497.32,233.05z"/>
	
		<path id="MI" sodipodi:nodetypes="ccccccccccccccccccccccccccccccccccccccccccccccccccccccccccccccccccccccccccccccccc" inkscape:connector-curvature="0" inkscape:label="#MI" fill="#C6C6C6" stroke="#000000" stroke-width="0.2822" d="
		M329.301-20.454l-0.589,0.502l3.409,3.918l6.791,0.594l7.157,1.398l2.479,0.702l9.568,1.914l1.862,2.149l2.83,0.863l1.773,8.027
		c0.801,0.456,1.455,0.825,2.202,1.365l3.997-6.029l0.65-3.268l1.497-3.532l0.659-0.181l1.061,1.243l0.535-0.025l3.774-2.099
		l1.327,1.207l0.407,0.105l1.075-0.947l0.827-2.48l2.026-0.745l5.936-0.81l1.547-2.116l4.403-0.361
		c28.45,2.112,4.089-8.487,0.544-8.116c-2.531-6.709-18.284,5.265-21.045,7.042c-9.896,0.477-13.955-7.504-23.721-1.212
		C353.878-38.558,355.583-32.529,329.301-20.454L329.301-20.454z M396.995-5.418l-0.176,1.678l0.339,1.277l0.507,4.355l-2.93,1.81
		l-0.567-0.097l-0.186-3.35l0.991-1.965l0.454-1.963l-0.733-0.611l-1.626,0.725l-0.643,3.392l-2.304,1.006l-1.44,1.612l-0.091,0.776
		l0.601,0.618l-0.449,2.087l-1.905,0.465l0.051,0.893l0.776,1.905l-0.693,4.913l-1.186,3.293l0.739,3.698l0.479,0.874l-0.588,1.97
		l-0.233,0.633l-0.173,2.2l3.313,4.619l2.771,5.02l1.47,3.787l-0.49,3.757l-0.566,4.782l-1.859,4.223l-0.147,2.198l-2.646,2.591
		l3.763-0.33l18.223-2.67l6.189-1.094l1.732-0.522l4.253-0.949c13.688-2.526,11.778-12.547,13.562-21.206
		c2.859-13.874-3.854-33.221-10.757-14.566c-12.422,0.397-2.631-6.004-0.605-6.264l0.445-2.089l1.989-1.389l-0.708-7.957
		l-1.491-1.72l-1.133-0.593C423.46-7.398,416.524-15.856,396.995-5.418L396.995-5.418z"/>
	<path id="ME" inkscape:connector-curvature="0" inkscape:label="#ME" fill="#C6C6C6" stroke="#000000" stroke-width="0.2822" d="
		M616.254-66.519l1.449,1.475c-0.236,3.361,0.681,10.012-1.466,13.568c-2.592,4.293-6.66,5.404-12.146,9.867
		c-4.608,3.748-10.709,5.87-13.285,9.33l0.804,2.346l-0.98,1.01l0.044,3.223l-0.564,4.658l-1.783-0.758l-0.452-2.246l-2.78-0.686
		l-0.329-2.014l-5.987-17.002l-3.85-10.613l0.998-0.142l1.085,0.245l-0.095-1.907l0.762-3.366l1.656-3.555l0.881-3.034l-1.457-1.714
		l-0.216-4.409l0.537-0.747l0.471-2.057l-0.166-1.066l-0.291-3.569l1.08-3.644l1.736-6.666l1.329-3.181l0.917-0.05l0.915,0.07
		l0.042,0.833l0.994,1.62l1.966,0.371l0.54-0.626l-0.03-0.715l2.747-2.3l1.193-1.38l1.034,0.064l4.312,1.558l1.406,0.642
		l7.475,21.702l4.226-0.229l0.642,1.4l0.286,3.568l2.14,1.557l0.569-0.03l0.097-0.363l-0.385-0.817L616.254-66.519L616.254-66.519z"
		/>
	<path id="WV" inkscape:connector-curvature="0" inkscape:label="#WV" fill="#C6C6C6" stroke="#000000" stroke-width="0.2822" d="
		M490.187,73.967l1.094,3.883l1.113,4.747l1.601-2.137l1.685-2.534l2.008-0.593l1.104-1.215l1.318-2.128l1.183,0.454l2.315-0.376
		l1.985-1.775l1.545-1.238l1.457-0.462l1.085,0.754l2.994,1.297l1.624,1.333l1.152,0.971l-0.383,4.445l-4.774-1.778l-3.464-1.115
		l0.13,4.118l-1.969,4.512l-1.928,2.032l-0.842,2.233l-2.096,0.505l-0.568,2.898l-0.676,3.181l-3.159,0.435l-1.961-1.841
		l-0.837,0.489l-0.279,4.371l-0.936,2.866l-3.521,8.907l0.765,0.886l-0.086,1.524l-2.088,3.202l-1.471-0.357l-2.287,1.837
		l-2.058-0.35l-1.413,3.703c0,0-2.55,1.27-3.084,1.248c-0.131-0.004-2.027-0.891-2.027-0.891l-1.814,1.192l-1.886,0.928
		l-3.035-0.551l-0.947-0.882l-1.878-2.311l-2.597-1.449l-1.521-2.808l-3.572-2.58l-0.612-1.771l-2.133-1.049l-0.712-1.251
		l-0.409-4.164l1.743-0.154l1.519-0.721l0.019-2.191l1.232-1.223l-0.078-3.987l0.621-3.122l1.008-0.567l1.08,0.846l0.462,1.392
		l1.385-0.843l0.324-1.303l-0.98-1.368l-0.097-1.925l0.723-1.067l1.673-2.79l0.978-1.209l1.7,0.299l1.745-1.378l2.317-2.823
		l1.653-3.176l0.027-4.509l0.181-4.001l-0.191-3.724l-1.034-2.394l0.717-1.195l0.977-1.08l3.608,15.606l3.678-0.789l9.875-1.942
		h0.002v-0.009H490.187z"/>
	<path id="OH" inkscape:connector-curvature="0" inkscape:label="#OH" fill="#C6C6C6" stroke="#000000" stroke-width="0.2822" d="
		M467.608,38.778l-4.71,3.472l-3.017,1.958l-2.563,3.094l-3.074,3.25l-2.557,0.774l-2.312,0.504l-4.289,2.281l-1.679,0.214
		l-2.844-2.299l-4.114,0.727l-2.129-1.049l-1.964-0.976l-3.888,0.761l-8.087,1.705l-8.882,2.198l1.637,11.57l1.986,10.842
		l3.037,18.515l0.65,3.814l3.295-0.272l1.908-0.742l2.755,1.055l1.837,3.383l4.111-0.226l1.601,1.605l1.407-0.125l1.979-1.17
		l2.021,0.192l4.358,0.16l1.296-1.766l1.822-1.123l1.629-0.626l0.629,2.157l1.463,0.698l2.879,1.718l1.743-0.154l1.046-0.446
		l0.034-2.202l1.209-1.221l-0.115-3.811l0.651-3.307l1.016-0.532l1.104,0.856l0.503,1.326l1.331-0.895l0.291-1.178l-0.974-1.466
		l-0.039-1.842l0.557-0.883l1.585-2.717l0.78-1.269l1.701,0.298l1.743-1.377l2.321-2.825l2.049-3.354l0.05-4.03l0.184-4.001
		l-0.36-4.208l-0.884-2.261l0.232-0.959l1.374-1.465l-2.204-7.092l-3.127-15.262h0.002v0.002H467.608z"/>
	<path id="IN" inkscape:connector-curvature="0" fill="#C6C6C6" stroke="#000000" stroke-width="0.2822" d="M382.154,106.659
		l-0.391-2.552l0.421-4.401l-0.678-5.502l-1.692-12.66l-1.663-12.148l-1.262-9.271l2.498,0.578l1.205,0.713l0.889-0.306l1.604-1.628
		l2.201-1.401l4.068-0.337l17.512-2.708l4.44-0.647l1.861,12.61l4.92,29.095l0.713,4.562l-0.202,1.813l1.056,1.371l0.135,1.09
		l-1.952,1.372l-2.77,1.383l-2.542,0.567l-0.279,3.889l-3.522,2.823l-2.074,3.301l0.355,1.873l-0.403,1.241l-2.661,0.141
		l-1.336-1.221l-1.942,1.104l-2.088,1.306l0.254,2.416l-0.944,0.257l-0.419-0.789l-1.793-1.104l-2.548,1.2l-1.122,2.452l-1.18-0.582
		l-1.229-1.211l-3.559,0.567l-4.437,1l-2.265,1.357l-0.067-2.274l0.202-3.618l1.694-2.401l1.267-3.161l1.896-3.441l-0.624-4.608
		L382.154,106.659z"/>
	<path id="IL" inkscape:connector-curvature="0" fill="#C6C6C6" stroke="#000000" stroke-width="0.2822" d="M381.908,106.403
		l-0.214-2.652l0.341-4.216l-0.955-5.671l-1.503-12.491l-1.652-11.876l-1.221-9.209l-0.257-0.717l-0.754-2.019l-1.187-2.904
		l-1.365-1.347l-1.27-1.995l-0.413-4.35l-36.555,3.955l0.282,1.874l1.854,0.453l0.783,0.869l0.438,1.432l3.258,2.568l0.642,1.788
		l-0.404,2.753l-1.318,2.979l-0.447,2.025l-1.752,1.547L336.8,69.82l-4.149,1.306l-0.479,1.482l-0.461,1.664l0.604,1.061
		l1.531,1.195l-0.015,3.275l-1.396,1.353l-0.482,1.296l0.108,2.18l-1.447,0.437l-1.23,0.976l-0.132,1.1l0.27,1.628l-1.32,1.109
		l-0.709,2.271l0.517,2.884l2.129,5.722l6.172,5.688l4.542,2.683l-0.006,3.461l0.79,1.049l5.146,0.101l2.25,0.975l-0.396,2.934
		l-1.586,4.818l-0.415,2.572l1.986,2.989l5.341,3.915l3.69,0.357l1.854,3.915l1.778,2.454l-0.608,2.396l1.45,3.205l1.55,1.558
		l1.095-0.75l0.642-1.689l1.697-1.477l1.686-0.575l2.129,0.83l2.961,0.944l0.938-0.288l0.063-1.803l-1.124-1.863l0.146-1.899
		l1.417-1.146l2.389-0.769l0.987-0.417l-0.548-1.074l-0.733-1.841l1.11-0.839l0.794-2.598l-0.111-2.568l0.268-3.718l1.742-2.411
		l1.332-3.317l1.622-3.265l-0.518-4.156L381.908,106.403z"/>
	<path id="WI" inkscape:connector-curvature="0" inkscape:label="#WI" fill="#C6C6C6" stroke="#000000" stroke-width="0.2822" d="
		M371.504,46.949l-0.185-2.506l-1.13-3.547l-0.77-4.854l-1.006-1.878l0.651-2.481l0.526-2.345l1.058-2.115l-0.656-2.671
		l-0.666-2.799l0.317-1.433l1.452-2.008l0.014-2.189l-0.699-0.994l0.413-2.082l-0.536-3.295l1.969-4.608l2.051-5.514l0.034-1.804
		l-0.3-0.757l-0.628,0.418l-3.103,5.183l-2.037,3.323l-1.479,1.493l-0.556,1.832l-1.529,0.723l-0.825,1.588l-1.18-0.197
		l-0.204-1.407l0.937-1.979l1.489-3.811l1.357-1.358l0.693-1.915l-2.127-1.405l-2.006-8.155l-2.895-0.919l-1.653-1.753l-9.824-1.662
		l-2.341-0.685l-6.666-1.384l-6.385-0.595l-3.224-3.921l-0.578,0.472l-0.964-0.08l-1.222-4.16
		c-3.692-0.464-10.198,5.866-13.028,5.547l-4.54-2.556l-1.578,2.339l-0.069,2.189l0.349,6.72l-0.85,1.319l-4.049,3.304l-1.587,4.816
		l0.378,0.163l2.098,1.532l0.68,2.515l-1.331,2.618l0.157,3.088l0.64,5.247l2.5,2.239l2.749-0.142l1.597,2.467l2.762,0.222
		l3.345,4.38l5.843,2.977l1.76,2.094l1.036,5.865l0.684,2.606l1.896,1.177l0.241,1.08l-1.505,2.809l0.314,2.534l2.172,2.983
		l2.061,0.804l2.397,0.242l1.131,1.041l36.152-3.987L371.504,46.949L371.504,46.949z"/>
	<path id="NC" inkscape:connector-curvature="0" inkscape:label="#NC" fill="#C6C6C6" stroke="#000000" stroke-width="0.2822" d="
		M551.539,114.898l1.87,3.819c-0.821,1.562-4.777,6.593-4.769,7.148c0.019,1.664,16.311-1.18,16.834-0.207
		c1.659,3.074-10.109,10.425-20.54,8.537c-5.233-0.95,11.044,3.084,9.568,6.197c-3.177,1.399-6.134,0.54-11.54,6.25
		c-3.002,3.172-1.432,9.781-3.103,12.711c-1.781,3.115-11.928,12.319-13.587,10.734c-1.542-1.474-3.832-2.683-8.443-6.073
		l-10.404-5.517l-2.362-0.523l-10.036,1.676l-3.393,0.772l-1.426-2.501l-2.465-1.559l-13.182,1.063l-5.791,0.942l-7.061,3.97
		l-4.812,2.307l-16.846,2.928l0.232-3.24l1.362-1.229l2.171-0.626l0.369-2.982l3.251-2.355l3.043-1.316l3.221-2.998l3.403-1.849
		l0.391-2.468l2.947-3.242l0.509-0.155c0,0,0.045,0.899,0.692,0.866c0.648-0.035,1.567,0.178,1.567,0.178l1.665-2.922l1.656-0.598
		l1.824,0.16l1.149-2.893l2.224-2.173l0.299-1.688v-2.906l3.424-0.194l5.729-0.977l12.52-2.44l12.03-2.28l17.128-4.641l15.821-4.208
		l8.848-2.372L551.539,114.898L551.539,114.898z"/>
	<path id="TN" inkscape:connector-curvature="0" inkscape:label="#TN" fill="#C6C6C6" stroke="#000000" stroke-width="0.2822" d="
		M441.806,139.617l-41.335,6.12l-12.542,2.062l-3.681,0.597l-3.099,0.139l-0.012,3.268l-6.541,0.549l-5.537,0.797l-6.481,0.235
		l-0.841,5.678l-1.132,4.425l-2.523,2.321l-0.899,3.536l-0.151,2.065l-3.145,1.97l1.312,2.761l-0.597,3.512l-0.741,0.67
		l86.156-12.73l0.158-3.16l1.389-1.26l2.237-0.712l0.385-2.979l3.168-2.321l3.177-1.351l3.124-3.005l3.466-1.795l0.289-2.456
		l3.094-3.336l0.435-0.113c0,0,0.072,0.901,0.72,0.865c0.648-0.036,1.567,0.202,1.567,0.202l1.664-2.943l1.632-0.599l1.833,0.142
		l1.133-2.872l2.257-2.224l0.258-1.557l0.097-2.96l-1.729-0.071l-1.999,1.718l-5.597,0.31l-14.598,2.653L441.806,139.617
		L441.806,139.617z"/>
	<path id="AR" inkscape:connector-curvature="0" fill="#C6C6C6" stroke="#000000" stroke-width="0.2822" d="M292.111,160.547
		l1.563,5.381l0.338,6.541l1.55,8.659l1.74,30.048l1.913,1.447l2.321-1.212l2.241,0.796l0.818,5.194l44.479-3.194l0.828-1.709
		l-0.371-2.807l-1.587-2.286l1.219-1.246l-1.382-1.928l0.442-2.024l0.863-4.51l1.932-1.743l-0.641-1.789l2.706-4.417l2.142-1.2
		l-0.156-1.183l-0.349-1.438l2.058-4.566l1.869-1.094l0.169-2.744l1.359-1.056l-2.528-0.256l-1.24-3.129l2.145-2.005l0.364-1.628
		l0.854-3.266l0.725-2.633l-3.16,0.735l-4.119-0.291l0.27-1.29l2.279-2.159l0.609-2.943l-1.587-2.286L292.111,160.547z"/>
	<a xlink:href="LINK MO" >
		<path id="MO" inkscape:connector-curvature="0" fill="#921708" stroke="#000000" stroke-width="0.2822" d="M275.054,96.977
			l2.64,3.141l2.583,2.048l1.74,0.095l1.237,0.664l0.122,2.362l-1.397,1.347l-0.272,1.837l1.788,2.638l2.136,2.256l2.088,1.351
			l1.577,9.203l1.733,28.647l0.377,3.713l0.588,4.257l17.923-1.614l18.548-1.503l16.621-1.493l9.325-0.664l1.872,2.633l-0.413,2.657
			l-2.373,2.035l-0.381,1.483l4.325,0.141l3.09-0.702l1.148-4.438l0.28-4.678l1.575-2.121l2.017-1.283l-0.086-2.426l0.733-1.579
			l-1.462-1.955l-1.019,0.839l-1.687-1.685l-1.228-3.728l0.537-2.037l-1.694-2.64l-1.653-3.559l-3.873-0.438l-5.809-4.16
			l-1.548-3.202l0.507-2.576l1.401-4.893l0.246-2.297l-1.598-0.739l-5.524-0.352l-0.895-1.318l-0.267-3.355l-4.53-2.503
			l-5.904-5.883l-2.13-5.718l-0.356-3.346l0.542-1.854l-2.141-2.346l-1.009-1.768l-51.423,4.556l-1.827,0.186l1.111,1.944
			l-0.088,1.829L275.054,96.977z"/>
	</a>
	<path id="GA" inkscape:connector-curvature="0" fill="#C6C6C6" stroke="#000000" stroke-width="0.2822" d="M433.085,198.813
		l1.445,5.464l1.944,4.919l2.213,2.592l0.525,2.681l1.588,0.561l0.216,1.663l-1.226,3.927l-0.256,2.584l-0.051,1.551l1.473,3.397
		l0.482,4.224l-0.548,1.958l0.548,0.622l1.199,0.582l0.297,2.548l1.925,2.57l1.889,1.624l6.35-0.203l8.635-0.958l17.17-1.917
		l4.334-0.759l3.661-0.163l0.252,2.304l2.102,0.535l0.083-3.484l-1.481-3.522l0.839-1.329l4.691,0.398l3.999,0.045l-0.883-4.969
		l1.4-8.062l0.992-3.395l-0.496-2.036l2.412-5.101l-0.463-1.056l-1.504,0.643l-2.123-0.922l-0.604-1.643l-1.18-2.774l-1.901-1.57
		l-2.098-0.407l-1.492-3.788l-2.604-4.914l-3.442-1.367l-1.761-1.451l-1.144-2.005l-1.765-1.448l-1.86-0.936l-1.934-2.219
		l-2.553-1.676l-3.697-1.218l-0.446-1.143l-2.058-2.214l-0.448-1.136l-2.923-3.808l-2.813,0.222l-3.1-1.715l-1.19-0.97l-0.332-1.4
		l0.617-1.573l1.742-0.975l-0.593-1.643l-33.314,5.692l0.09,1.735l0.215,1.661l0.653,2.667l3.042,6.158l2.346,7.73l1.418,4.821
		L433.085,198.813z"/>
	<path id="SC" inkscape:connector-curvature="0" fill="#C6C6C6" stroke="#000000" stroke-width="0.2822" d="M489.367,197.965
		l-2.442-4.637l-3.445-1.368l-1.764-1.456l-1.142-2l-1.764-1.457l-1.863-0.934l-1.925-2.214l-2.557-1.674L468.771,181l-0.448-1.137
		l-2.063-2.211l-0.445-1.136l-2.928-3.97l-2.714,0.266l-3.331-1.759l-1.094-0.975l-0.327-1.398l0.565-1.573l1.767-0.863
		l-0.502-1.801l4.52-2.092l7.112-4.023l6.187-0.966l12.888-0.999l2.186,1.387l1.481,2.598l3.423-0.666l10.03-1.673l2.359,0.517
		l10.413,5.523l8.424,6.033l-4.115,4.559l-1.816,4.99l-0.133,5.029l-1.26,0.707l-0.795,2.23l-1.916,0.613l-1.532,2.915l-2.091,2.296
		l-1.672,2.789l-1.266,0.709l-2.706,2.844l-2.323,0.253l0.914,2.524l-3.785,4.573l-1.632,1.116l-1.385,0.844l-2.123-0.92
		l-0.604-1.647l-1.18-2.765l-1.9-1.579l-2.096-0.407L489.367,197.965z"/>
	<path id="KY" inkscape:connector-curvature="0" inkscape:label="#KY" fill="#C6C6C6" stroke="#000000" stroke-width="0.2822" d="
		M464.328,120.148l-1.739,2.002l-2.7,3.32l-3.717,4.544l-0.904,1.414l0.035,1.671l-3.417,1.9l-4.39,2.93l-5.716,1.728l-41.32,6.029
		l-12.545,2.062l-3.678,0.599l-3.1,0.136l-0.009,3.361l-6.543,0.453l-5.537,0.799l-6.396,0.282l0.911-1.098l1.938-1.331l0.053-2.55
		l0.656-1.491l-1.391-1.951l0.562-1.551l1.739-1.505l1.655-0.6l2.255,0.913l2.899,0.881l0.892-0.303l0.036-1.805l-1.136-1.87
		l0.166-1.811l1.493-1.234l2.044-0.622l1.268-0.582l-0.72-1.38l-0.599-1.514l1.166-0.854c0-0.03,0.856-2.85,0.84-2.958l2.384-1.299
		l4.218-0.989l3.578-0.571l1.183,1.235l1.26,0.626l1.146-2.533l2.499-1.15l1.827,1.087l0.371,0.777l0.928-0.258l-0.253-2.338
		l2.435-1.519l1.679-0.941l1.29,1.256l2.654-0.171l0.406-1.272l-0.386-1.782l1.918-3.284l3.682-2.928l0.369-3.871l2.323-0.483
		l2.969-1.463l1.886-1.458l-0.225-1.234l-0.975-1.109l0.329-2.402l3.346-0.267l1.809-0.688l2.74,0.999l1.823,3.383l4.107-0.205
		l1.733,1.67l1.288-0.184l2.031-1.123l4.215,0.239l2.071,0.066l1.269-1.702l2.038-1.241l1.476-0.64l0.635,2.226l1.681,0.757
		l2.204,1.545l0.324,4.502l0.712,1.215l2.135,1.13l0.715,1.791l3.47,2.56l1.595,2.804l2.036,1.217h0.002v-0.001H464.328z"/>
	<path id="AL" inkscape:connector-curvature="0" inkscape:label="#AL" fill="#C6C6C6" stroke="#000000" stroke-width="0.2822" d="
		M395.317,255.25l-1.781-11.315l-2.973-14.784l-0.447-11.182l-0.627-24.691l-0.814-13.219l-0.132-5.108l35.463-4.709l-0.029,1.74
		l0.215,1.665l0.657,2.669l3.042,6.155l2.345,7.733l1.418,4.818l1.495,3.786l1.448,5.465l1.941,4.923l2.21,2.59l0.529,2.677
		l1.587,0.562l0.214,1.663l-1.223,3.928l-0.256,2.585l-0.051,1.55l1.473,3.399l0.479,4.225l-0.548,1.958l0.552,0.619l1.199,0.581
		l0.383,2.28l-4.496-0.05l-5.408,0.794l-20.328,3.364l-8.277,1.549l-0.058,2.294l1.496,1.339l2.153,1.435l0.793,6.282l-4.332,2.273
		c-6.15,3.034-0.947,1.309-4.486-2.422c-0.828-0.869-2.246,0.543-2.624,0.471L395.317,255.25L395.317,255.25z"/>
	<a xlink:href="LINK LA" >
		<path id="LA" inkscape:connector-curvature="0" inkscape:label="#LA" fill="#921708" stroke="#000000" stroke-width="0.2822" d="
			M376.583,255.214l-2.759-2.381l0.582-4.411l-0.563-0.683l-7.374,1.183l-20.017,1.396l-0.645-1.875l0.383-6.754l2.408-4.86
			l3.672-7.111l-0.56-1.881l0.979-0.596l0.285-1.567l-1.917-1.539l-0.166-1.539l-1.645-3.377l-0.381-5.029l-44.372,3.021
			l0.419,7.604l0.933,7.415l0.709,3.059l2.183,3.163l0.938,3.96l3.703,4.179l0.315,2.532l0.576,0.517l-0.202,6.749l-2.172,4.118
			l1.366,1.565l-0.445,2.029l-0.247,5.84l-0.97,2.598l0.246,2.866l3.692-1.399l9.707-0.334l8.428,2.398l5.224,0.631l2.916-1.312
			l2.637,0.768l2.628,0.637l0.562-1.703l-2.637-0.765l-2.048,0.493l-2.27-1.171c0,0,0.079-1.033,0.587-1.188
			c0.512-0.152,2.421-0.897,2.421-0.897l1.484,1.083l1.383-0.845l2.616,0.381l1.267,1.866l0.351,1.785l3.636,0.069l1.498,1.34
			l-0.58,1.318l-1.002,0.695l1.359,1.216l6.876,2.479l2.796-1.174c0.334-0.973,3.102-1.731,5.841-5.901
			c0.136-0.205,11.898,4.52,12.031,4.314c0.949-1.45-10.06-9.651-10.603-11.349c-1.296-4.061-14.804-5.683-14.002-7.031
			c0.625-1.046,18.896,0.606,19.987-1.617l-0.948-1.872L376.583,255.214L376.583,255.214z"/>
	</a>
	<path id="MS" inkscape:connector-curvature="0" fill="#C6C6C6" stroke="#000000" stroke-width="0.2822" d="M379.582,259.556
		l-0.856,0.663l-0.999-1.93l-1.075-3.042l-2.877-2.401l0.687-4.453l-0.587-0.697l-1.451,0.257l-6.306,1.024l-19.633,1.308
		l-0.709-1.739l0.357-6.688l2.26-4.636l3.809-7.483l-0.455-1.913l0.968-0.573l0.269-1.543l-1.944-1.556l-0.181-1.695l-1.637-3.198
		l-0.331-4.733l0.961-2.026l-0.318-2.7l-1.543-2.379l1.159-1.241l-1.359-1.922l0.296-1.329l0.994-5.25l1.908-1.723l-0.612-1.855
		l2.713-4.359l2.211-1.199l-0.246-1.32l-0.302-1.327l2.074-4.541l1.825-1.075l0.085-0.714l29.738-4.622l0.407,4.984l0.813,13.221
		l0.627,24.688l0.445,11.186l2.976,14.779l1.738,10.582l-0.149,1.008l-4.144,0.211l-1.196-0.576l-1.697-0.172l-5.354,1.819
		l-1.458-0.567L379.582,259.556z"/>
	<a xlink:href="QQQQQQQQQQQQQIOWA" >
		<path id="IA" inkscape:connector-curvature="0" fill="#921708" stroke="#000000" stroke-width="0.2822" d="M341.716,62.684
			l-1.136,2.638l-0.526,2.21l-1.674,1.362l-1.352,0.522l-4.392,1.709l-0.957,3.115l0.644,1.061l1.546,1.262l-0.062,3.22
			l-1.351,1.292l-0.55,1.337l0.217,2.201l-1.494,0.442l-1.258,0.944l-0.163,1.084l0.305,1.673l-1.196,0.948l-2.103-2.386
			l-1.11-1.893l-52.521,4.708l-0.729,0.166l-1.829-3.502l-0.457-5.256l-1.449-3.207l-0.766-4.149l-1.98-2.808l-0.931-3.779
			l-2.507-5.883l-1.135-4.22l-1.187-1.669l-1.394-2.115l1.364-3.929l0.864-4.597l-2.281-1.523l-0.479-2.16l0.628-2.035l1.373-0.071
			l66.116-4.416l0.84,3.291l1.862,1.146l0.267,1.121l-1.487,2.777l0.284,2.538l2.171,2.914l2.074,0.925l2.487,0.271l0.56,0.632
			l0.324,2.207l1.804,0.367l0.812,0.935l0.479,1.452l3.175,2.511l0.647,1.869L341.716,62.684z"/>
	</a>
	<path id="MN" inkscape:connector-curvature="0" inkscape:label="#MN" fill="#C6C6C6" stroke="#000000" stroke-width="0.2822" d="
		M256.75-1.745l-0.713-6.701l-1.766-5.737l-2.017-10.64l-0.77-7.79l-1.605-2.649l-1.487-3.929l-0.422-8.173l0.389-3.116
		l-1.682-4.256l24.124-1.213l-0.081-6.563l0.51-0.154l1.832,0.293l1.587,0.562l0.873,4.333l1.418,4.82l1.359,1.218l16.859,0.092
		l0.319,1.143c2.952-0.001,1.193,5.286,8.185,7.672c2.143,0.73,10.089-0.22,12.936-0.211c7.256,0.021,26.051-2.851,8.158,6.425
		l-2.354,2.181l-1.795,2.925l-1.653,3.176l-1.389,0.714l-3.417,4.168l-1.029,0.18l-3.349,2.37l-1.844,2.648l-0.048,2.543
		l0.404,6.387l-1.032,1.398l-3.914,3.196l-1.54,4.845l2.392,1.656l0.677,2.537l-1.351,2.65l0.29,2.97l0.572,5.333l2.549,2.261
		l2.664-0.138l1.643,2.41l2.725,0.261l3.323,4.346l5.844,2.979l1.833,2.195l0.802,5.087l-64.965,4.258l-1.738-28.33l-0.487-2.342
		l-3.435-2.556l-0.991-1.405l-0.065-1.271l1.581-1.357l1.042-1.145L256.75-1.745L256.75-1.745z"/>
	<a xlink:href="LINK OK" >
		<path id="OK" inkscape:connector-curvature="0" fill="#921708" stroke="#000000" stroke-width="0.2822" d="M216.912,197.84
			l3.627,2.729l1.694,0.825l0.539-0.212l0.465-1.662l1.174,1.395l1.648-0.084l-0.057-1.093l2.251,0.979l-0.207,3.104l3.304,0.01
			l2.061,0.809l3.322,0.374l2.088,1.35l1.746-1.728l2.773,0.399l2.155,2.624l0.733-0.04l0.094,1.818l1.859,0.447l1.737-1.911
			l1.491,0.468l2.014-0.1l0.835,1.96l5.129,1.392l1.07-0.605l1.294-3.339l0.916-0.051l1,1.588l3.324,0.378l2.985,0.939l2.416,0.604
			l1.426-0.805l0.445-2.024l3.478-0.175l1.685,0.636l2.111-1.746l0.916-0.044l0.616,1.24l3.294-0.164l1.199-1.703l1.481,0.285
			l1.75,1.915l2.638,1.323l2.599,0.593l1.603,0.809l-1.843-29.546l-1.551-8.661l-0.494-7.046l-1.421-5.135l-0.916-5.672
			l-0.211-3.029l-9.703,0.752l-37.172,1.555l-36.139,0.221l-19.501-0.088l-13.409-0.325l-0.255,8.737l16.43,0.076l25.715-0.285
			l-0.865,19.496l0.367,14.185L216.912,197.84z"/>
	</a>
	<a xlink:href="http://www.google.com" xlink:title="Is this thing on?">
		<path id="TX" inkscape:connector-curvature="0" inkscape:label="#TX" fill="pink" stroke="#000000" stroke-width="0.2822" d="
			M174.989,163.044h17.25l24.936-0.375l-0.904,18.731l0.509,14.432l0.14,1.653l3.634,2.853l1.65,1.07l0.925-0.494l0.224-1.459
			l0.987,1.386l1.693-0.051l-0.062-1.151l1.377,0.699l0.929,0.277l-0.125,3.167l3.277-0.093l2.392,0.829l3.188,0.255l1.992,1.554
			l1.615-1.738l3.007,0.335l1.911,2.469l0.874,0.21l-0.048,1.565l1.805,0.542l1.782-1.732l1.732,0.401l1.787-0.065l0.846,1.898
			l5.153,1.418l1.243-0.674l1.021-3.383L262,207.56l0.729,0.026l1.069,1.592l3.173,0.365l2.718,0.757l2.792,0.807l1.434-0.852
			l0.468-2.028l3.567-0.148l1.486,0.666l2.155-1.79l0.885-0.009l0.747,1.24l3.247-0.168l1.132-1.673l1.512,0.245l1.656,1.829
			l2.902,1.479l2.322,0.526l1.245,0.572l2.041,1.485l2.381-1.18l2.202,0.795l0.7,4.827l0.369,7.711l0.941,7.544l0.709,2.834
			l2.326,3.402l0.919,3.894l3.604,4.225l0.285,2.491l0.631,0.595l-0.241,6.688l-2.093,4.096l1.315,1.646l-0.407,1.885l-0.232,5.909
			l-1.066,2.711l0.379,2.77l-4.47,1.497l-7.707,4l-0.697,1.581l-1.991,1.646l-1.622,1.242l-1.002,0.696l-4.311,4.472l0,0
			l-9.751,0.624l-4.722,5.372l-1.115,3.69l-6.321,2.253l0.445,2.038l-2.692,0.655l-2.879,4.526l-3.222,0.424l-0.696,1.581
			l1.892,1.447l-0.938,4.425l-1.595,6.779l-0.461,3.63l0.746,1.896l1.71,5.447l1.029,4.841l1.536,2.107l-0.716,1.199l-0.339,4.003
			l-4.688-2.117c-2.25-0.341-5.632-0.801-7.618-1.238c-5.283-1.16-10.734-5.229-16.837-3.397l-1.406-7.378l-1.301-5.084
			l-2.667-1.406l-0.611-1.771l0.492-0.542l0.119-2.708l-1.062-0.46l-0.558-0.743l0.856-3.521l-1.388-1.73l-2.642-0.895l-2.897-3.329
			l-3.119-5.118l-3.471-1.881l0.05-1.547l-4.776-9.54l-0.82-3.307l-1.503-1.468l-0.189-1.151l-5.008-3.989l-2.197-2.334l-0.046-0.9
			l-2.157-1.562l-5.482-0.622l-5.979-0.206l-2.552-1.674l-3.551,1.602l-2.788,1.302l-1.68,2.661l-0.623,2.992l-3.241,5.059
			l-1.842,2.028l-2.109-0.666l-1.471-0.824l-1.58-0.436l-3.199-1.637l-0.027-0.513l-1.504-1.468l-4.227-1.454l-2.846-5.642
			l-1.786-2.974c-0.305-5.901-1.659-9.163-1.063-15.05l-7.602-0.119l-0.993-1.624l-4.097-1.462l-1.104-1.231l-6.021-5.996
			l-1.168-2.514l-3.845-1.607l-1.344-3.405l-2.189-2.208l-1.572-0.305l-0.711-3.69l6.435,0.212l23.355,0.983l23.309,0.074
			l0.989-15.552l0.826-44.296l0.51-14.957l1.099-0.036v0.012h-0.007V163.044z"/>
	</a>
	<path id="NM" inkscape:connector-curvature="0" fill="#C6C6C6" stroke="#000000" stroke-width="0.2822" d="M173.807,163.134
		l1.263,0.034l0.202-8.896l-83.696-4.165l-9.054,96.394l12.457,0.944l0.625-8.012l23.517,1.039l-0.815-3.74l6.942,0.062
		l24.274,1.094l21.897,0.219l1.004-14.957l0.792-44.547L173.807,163.134z"/>
	<a xlink:href="LINK KS" >
		<path id="KS" inkscape:connector-curvature="0" fill="#921708" stroke="#000000" stroke-width="0.2822" d="M238.847,101.862
			l35.505-1.041l4.079-0.21l1.837,1.628l1.615-0.101l1.355,0.739l0.074,2.392l-1.394,1.448l-0.174,1.783l1.615,2.627l2.494,2.417
			l1.928,1.185l1.506,8.878l1.634,28.663l-10.093,0.679l-36.915,1.541l-35.753,0.201l-19.768,0.018l0.46-51.477l17.707-0.372
			L238.847,101.862z"/>
	</a>
	<a xlink:href="LINK NEBRASKA" >
		<path id="NE" inkscape:connector-curvature="0" fill="#921708" stroke="#000000" stroke-width="0.2822" d="M206.633,102.807
			l-17.846,0.296l-0.018-16.986l-25.991-0.99l1.667-35.144l12.488,0.18l16.153,0.075l14.323,0.176l19.081-0.075l8.583-0.804
			l1.741,1.729l3.965,2.165l0.954,0.679l3.42-1.267l3.093-0.522l2.187-0.297l1.521,1.016l3.313,1.105l2.445,1.146l0.433,1.256
			l0.817,1.593l1.464-0.075l0.641,0.004l0.909,3.683l2.687,6.607l0.612,2.964l2.175,2.894l0.667,4.04l1.46,3.3l0.468,5.134
			l2.874,5.44l-0.008,1.833l2.995,4.226l2.305,2.392l-4.042,0.207l-34.847,1.049L206.633,102.807z"/>
	</a>
	<path id="SD" inkscape:connector-curvature="0" fill="#C6C6C6" stroke="#000000" stroke-width="0.2822" d="M258.275,39.438
		l2.553-0.121l-0.303-3.968l-1.507-23.959l-0.649-2.969l-3.397-2.477l-0.856-1.292l-0.117-1.276l1.555-1.297l1.159-1.387
		l0.087-2.121L210.096-0.3l-44.009-0.482l-1.645,50.818l11.718,0.116l16.019,0.136l14.241,0.004l19.087,0.055l9.575-0.83
		l1.667,1.703l4.292,2.366l0.641,0.543l3.574-1.341l5.21-0.754l1.396,0.99l3.43,1.094l2.425,1.177l0.379,1.166l0.925,1.739
		l1.782-0.257l-0.062-0.458l-2.517-3.728l1.296-3.822l0.953-4.738l-2.312-1.537l-0.421-2.165L258.275,39.438z"/>
	<path id="ND" inkscape:connector-curvature="0" fill="#C6C6C6" stroke="#000000" stroke-width="0.2822" d="M247.936-47.392
		l0.341-3.066l-1.693-4.27l-22.953,0.732l-14.909,0.251l-21.277,0.065l-18.457-0.749l-2.836,53.657l44.112,0.392l46.542-1.292
		l-0.838-6.677l-1.624-5.345l-2.049-10.27l-0.817-8.708l-1.519-2.374l-1.621-4.055L247.936-47.392z"/>
	<path id="WY" inkscape:connector-curvature="0" fill="#C6C6C6" stroke="#000000" stroke-width="0.2822" d="M162.984,85.16
		l2.412-70.688L79.392,8.182l-7.637,70.854L162.984,85.16z"/>
	<path id="MT" inkscape:connector-curvature="0" fill="#C6C6C6" stroke="#000000" stroke-width="0.2822" d="M26.902-50.904
		l3.055,5.853l-0.91,3.688l1.653,3.557l2.619,0.96l4.141,8.364l2.289,2.412l0.413,0.889l2.793,0.769l0.45,1.618l-4.95,14.274
		l0.103,1.999l2.146,2.436l0.733-0.034l3.721-2.562l0.502-0.935l1.309,0.477L47-2.95l2.714,9.877l2.482,1.874l0.76,0.508
		l1.559,1.738l-0.226,2.744l0.69,2.697l0.954,0.68l1.736-1.909l2.197-0.116l2.628,1.14l1.976-0.828l3.294-0.172l2.995,1.121
		l2.177-0.477l0.245-2.377l2.351-0.668l1.154,1.036l0.498,2.522l1.175,0.602L79.418,8.2l86.004,6.264l3.499-68.919l-24.672-0.964
		l-23.571-1.624l-23.589-2l-26.102-2.909l-14.892-1.934l-26.48-4.16L26.902-50.904z"/>
	<path id="CO" inkscape:connector-curvature="0" fill="#C6C6C6" stroke="#000000" stroke-width="0.2822" d="M91.359,151.035
		l97.075,3.789l0.377-68.783L97.521,80.67L91.359,151.035z"/>
	<a xlink:href="LINK IDAHO" >
		<path id="ID" inkscape:connector-curvature="0" inkscape:label="#ID" fill="#921708" stroke="#000000" stroke-width="0.2822" d="
			M-2.87,49.591L2.705,21.25l0.924-3.417l1.77-4.826L4.19,11.962H2.691l-1.084-1.31l0.319-0.927l0.147-2.466l3.343-4.543
			l1.139-0.904L7.362,1.12l0.693-2.366L8.76-1.829l2.871-4.791l2.932-3.611l0.028-3.006l-2.854-1.947l-1.41-3.433l8.303-50.882
			l10.925,1.45l-2.65,17.169l3.159,5.799l-1.075,3.769l1.768,3.606l2.563,0.867l3.462,7.435l2.995,3.38l0.452,0.888l2.721,0.771
			l0.383,1.651L38.467-8.623L38.44-6.578l2.243,2.531l0.722-0.075l3.808-2.606l0.498-0.898l1.277,0.458l-0.003,4.265l2.711,9.883
			l3.266,2.363l1.436,1.65l-0.407,3.274l0.97,2.187l0.895,0.824l1.889-1.971l2.281-0.078l2.392,0.94l2.198-0.656l3.029-0.284
			l3.251,1.107l2.184-0.348l0.272-2.434l2.316-0.729l1.072,1.153l0.474,2.321l1.189,0.905l-4.509,42.934
			C73.896,60.139,2.791,50.498-2.87,49.591z"/>
	</a>
	<path id="UT" inkscape:connector-curvature="0" fill="#C6C6C6" stroke="#000000" stroke-width="0.2822" d="M91.065,80.188
		l6.609,0.341L91.5,151.168l-67.531-5.984l11.854-90.251l37.808,5.02l-0.752,8.506l-1.309,10.56l6.289,0.417L91.065,80.188z"/>
	<path id="AZ" inkscape:connector-curvature="0" inkscape:label="#AZ" fill="#C6C6C6" stroke="#000000" stroke-width="0.2822" d="
		M16.544,224.945l10.019,5.535l12.129,6.201l13.872,7.27l9.935,1.417l20.086,1.122L91.5,151.14l-67.522-6.015l-1.801,13.165
		l-1.287,0.082l-1.265,2.156l-2.018,0.017l-1.12-2.127l-2.21-0.158l-0.778-0.871l-0.733,0.035l-0.709,0.492l-1.513,0.9l0.195,5.541
		l-0.112,1.374l0.06,10.013l-1.1,1.786l-0.322,2.657l2.397,3.794l1.246,4.577l0.682,0.787l0.848,0.409l0.002,1.822l-1.225,1.155
		l-2.674,1.504l-1.476,1.625l-1.04,2.966l-0.255,3.929l-2.177,2.297l-1.619,0.629l0.144,0.653l-0.295,1.382l0.398,0.62l2.952,0.303
		l-0.346,2.204c-3.146,5.112,6.212,0.312,6.914,1.32C14.448,213.164,6.494,219.979,16.544,224.945L16.544,224.945z"/>
	
		<path id="NV" sodipodi:nodetypes="cccccccccccccccccc" inkscape:connector-curvature="0" fill="#C6C6C6" stroke="#000000" stroke-width="0.2822" d="
		M13.656,157.428h-0.833l-2.156,1.421l0.03,5.401l-0.053,4.608l0.076,6.836l-1.072,1.724l-1.997-0.753l-59.583-79.933l12.64-56.439
		l75.155,14.545L22.236,158.15l-1.452,0.352l-1.16,1.979l-1.898,0.105l-1.292-2.118l-2.111-0.192L13.656,157.428z"/>
	<a xlink:href="LINK OREGON" >
		
			<path id="OR" sodipodi:nodetypes="ccccccccccccccccccccccccccccccccccccccccccccccccc" inkscape:connector-curvature="0" fill="#921708" stroke="#000000" stroke-width="0.2822" d="
			M1.916,9.555l0.269-2.602l3.342-4.542l1.419-0.944l0.868-0.959l1.043-2.894l3.007-4.667l2.695-3.216l0.041-2.752l-2.718-1.829
			l-1.619-3.612L-0.022-20.81l-12.225-2.195l-12.349,0.729l-0.422-1.07l-4.308,1.859l-3.592-0.271l-1.987-1.172l-0.978,0.599
			l-3.762,0.01l-1.429-1.02l-4.294-1.418l-0.636,0.125l-3.539-1.004l-1.48,1.537l-4.956-0.019l-4.927-3.025l0.517-0.663
			l-0.137-6.185l-1.99-2.995l-3.318-0.287l-0.652-1.969l-1.902-0.271l-4.557,1.874l-1.546,5.229l-2.176,8.099l-2.323,5.271
			l-7.221,9.34l-4.036,12.218l-8.574,15.885l-0.631,8.909l97.185,20.306L2.94,20.81l0.667-3.4l1.653-4.567l-0.54-0.895l-2.015,0.065
			l-1.094-1.276L1.916,9.555z"/>
	</a>
	<path id="WA" inkscape:connector-curvature="0" inkscape:label="#WA" fill="#C6C6C6" stroke="#000000" stroke-width="0.2822" d="
		M-39.503-80.798l3.974,0.901l6.939,1.188l16.28,3.668L6.3-71.494l12.318,1.92l-8.299,51.075L0.211-20.785l-12.561-2.198
		l-12.191,0.655l-0.419-1.049l-4.393,1.961l-3.709-0.396l-1.784-1.171l-1.023,0.577l-3.798,0.085l-1.415-1.002l-4.3-1.461
		l-0.583,0.147l-3.576-1.029l-1.44,1.521l-5.028,0.02l-4.913-3.034l0.585-0.773l-0.219-6.104l-1.985-2.955l-3.319-0.313
		l-0.647-1.967l-1.841-0.268l-2.794,1.123l-1.944-2.465l0.139-2.325l2.187-0.37l1.127-3.278l-2.117-0.793l-0.024-2.96l3.467-0.693
		l-2.313-2.07l-1.457-5.591l0.398-2.338l-0.326-6.293c1.802-12.456,2.427-14.921,15.46-9.354c0,0,2.479,1.754,2.625,3.506
		c0.146,1.753-3.354,9.787-3.354,9.787s1.021,6.575,3.354,8.473c2.333,1.899,4.958-0.876,5.833-1.898
		c0.875-1.024,7.874-8.62,7.874-8.62L-39.503-80.798L-39.503-80.798z"/>
	
		<path id="CA" sodipodi:nodetypes="ccccccccccccccccccccccccccccccccccccccccccccccccccccccc" inkscape:connector-curvature="0" inkscape:label="#CA" fill="#C6C6C6" stroke="#000000" stroke-width="0.2822" d="
		M2.558,213.167l3.135-0.551l1.105-1.659l0.315-2.359l-2.867-0.321l-0.44-0.51l0.299-1.634l-0.152-0.462l1.514-0.568l2.32-2.379
		l0.259-3.99l0.965-2.758l1.466-1.802l2.75-1.408l1.258-1.341l-0.031-1.681l-0.82-0.421l-0.863-0.809l-1.166-4.599l-2.348-3.726
		l0.309-2.806l-1.979-0.72L-51.979,96.75l12.66-56.422l-60.138-13.016l-4.674,15.861c-0.125,15.786-2.408,36.049,6.877,49.601
		l2.01,3.758l1.203,3.158l-0.126,2.582l-0.238,0.398l0.086,1.668l4.79,4.776l-0.29,1.947l-0.423,1.825l-0.438,1.566l0.468,6.543
		l1.834,2.868l1.659,1.974l2.22,0.273l0.889,2.144l-0.76,2.871l-1.615,1.372l-0.906,0.043l-0.488,3.119l0.507,2.289l2.768,3.336
		l1.513,4.17l1.358,3.664l1.161,2.39c19.486,22.676,54.363,30.675,46.657,50.208c0.235,4.547,4.894,9.214,8.93,9.585l15.902,1.369
		L2.558,213.167L2.558,213.167z"/>
	<path id="VA" inkscape:connector-curvature="0" inkscape:label="#VA" fill="#C6C6C6" stroke="#000000" stroke-width="0.2822" d="
		M551.539,114.898l0.807-6.315l-9.771-0.656l-9.111-6.135c0,0,8.383,1.534,9.111,2.118c0.731,0.584,5.616-0.073,5.616-0.073
		l-1.531-6.428l-18.956-9.86l1.46-6.136l-9.555-7.56l-0.106-0.985l-6.255,0.246l2.03,1.684l-0.202,4.596l-4.521-1.685l-3.722-1.209
		l0.13,4.118l-1.866,4.276l-1.901,2.132l-0.968,2.37l-2.096,0.506l-1.199,5.846l-2.988,0.636l-2.183-1.81l-0.833,0.489l-0.282,4.369
		l-4.455,11.773l0.763,0.885l-0.077,1.388l-2.097,3.338l-1.47-0.357l-2.288,1.838l-2.058-0.351l-1.329,3.485l-3.165,1.465
		l-1.908-0.835l-3.819,2.066l-3.035-0.551l-3.085-3.338l-0.357-0.125l-2.951,3.613l-4.999,6.122l-1.041,1.584l0.033,1.671
		l-8.021,4.925l15.492-2.914l5.597-0.31l1.999-1.718l4.799-0.127l30.571-5.713L551.539,114.898L551.539,114.898z"/>
	<g id="DE_1_">
		
			<path id="DE" sodipodi:nodetypes="cccccccsssssssss" inkscape:connector-curvature="0" inkscape:label="" fill="#C6C6C6" stroke="#000000" stroke-width="0.2822" d="
			M548.1,65.347l1.637,9.26l2.881,9.658l4.74,0.442l-0.487-8.64L548.1,65.347L548.1,65.347z"/>
		<path fill="#C6C6C6" stroke="#000000" stroke-width="0.2822" d="M657.719,156.49c-3.488,0-6.293,2.8-6.293,6.292V179.4
			c0,3.49,2.806,6.292,6.293,6.292h25.479c3.489,0,6.293-2.804,6.293-6.292v-16.618c0-3.492-2.806-6.292-6.293-6.292H657.719z"/>
	</g>
	<g id="NJ_1_">
		
			<path id="NJ" sodipodi:nodetypes="ccsscsccccsccccsssssssss" inkscape:connector-curvature="0" inkscape:label="" fill="#C6C6C6" stroke="#000000" stroke-width="0.2822" d="
			M548.588,29.854c0,0-0.012,0.239-0.133,1.418c-0.128,1.178-1.341,2.382-2.172,3.19c-0.83,0.808-1.002,1.989-1.063,2.525
			c-0.063,0.535,0.128,1.559,0.311,2.215s0.554,1.225,1.152,2.171c0.595,0.945,6.244,5.14,6.244,5.14L542.429,60.25l18.651,9.172
			l6.07-21.091c0,0-5.569-5.193-4.476-7.311c1.094-2.118,4.035-5.183,4.035-5.183l-1.554-4.653L548.588,29.854L548.588,29.854z"/>
		<path fill="#C6C6C6" stroke="#000000" stroke-width="0.2822" d="M657.719,117.277c-3.488,0-6.293,2.802-6.293,6.293v16.616
			c0,3.489,2.806,6.294,6.293,6.294h25.479c3.489,0,6.293-2.806,6.293-6.294V123.57c0-3.491-2.806-6.293-6.293-6.293H657.719z"/>
	</g>
	<g id="CT_1_">
		<path fill="#C6C6C6" stroke="#000000" stroke-width="0.2822" d="M657.719,76.867c-3.488,0-6.293,2.802-6.293,6.293v16.572
			c0,3.489,2.806,6.336,6.293,6.336h25.479c3.489,0,6.293-2.846,6.293-6.336V83.16c0-3.491-2.806-6.293-6.293-6.293H657.719z"/>
		
			<path id="CT" sodipodi:nodetypes="ccccscsssssssss" inkscape:connector-curvature="0" fill="#C6C6C6" stroke="#000000" stroke-width="0.2822" d="
			M584.122,8.365l-17.942,3.013l1.905,12.052l10.367-2.348c0,0,6.854-3.523,7.002-4.254C585.598,16.098,584.122,8.365,584.122,8.365
			z"/>
	</g>
	<g id="NH_1_">
		
			<path id="NH" sodipodi:nodetypes="ccccccccccccccsssssssss" inkscape:connector-curvature="0" inkscape:label="" fill="#C6C6C6" stroke="#000000" stroke-width="0.2822" d="
			M576.678-49.547l-7.621,0.088v7.71l1.377,30.973l1.771,10.103l3.633-0.31l13.47-4.387l0.798-15.684l-1.772-0.753l-0.443-2.214
			l-2.792-0.709l-0.531-2.525L576.678-49.547L576.678-49.547z"/>
		<path fill="#C6C6C6" stroke="#000000" stroke-width="0.2822" d="M657.719,38.716c-3.488,0-6.293,2.845-6.293,6.337v16.572
			c0,3.489,2.806,6.292,6.293,6.292h25.479c3.489,0,6.293-2.802,6.293-6.292V45.053c0-3.492-2.806-6.337-6.293-6.337H657.719z"/>
	</g>
	<g id="MD_1_">
		<a xlink:href="LINK MD" >
			
				<path id="MD" sodipodi:nodetypes="ccccccccccccccccccccccccccccsssssssss" inkscape:connector-curvature="0" inkscape:label="" fill="#921708" stroke="#000000" stroke-width="0.2822" d="
				M543.003,60.739l-2.437,0.575l-33.942,8.552l-16.438,4.387l2.215,8.595l3.324-4.652l2.126-0.798l2.57-2.393l3.764-0.488
				l4.212-2.525l5.404,1.816l5.716-0.666l0.087,0.798l9.571,7.754l-1.462,6.114l14.223,1.241l-3.589-15.464l3.058-7.399
				c0.038,1.216,0.05,2.535-0.088,3.19c-0.291,1.388,0.133,7.488,0.133,7.488l8.33,13.558l8.286,5.273l-0.354-11.033l-4.741-0.442
				l-2.923-9.659l-1.595-9.26L543.003,60.739L543.003,60.739z"/>
		</a>
		<path fill="#921708" stroke="#000000" stroke-width="0.2822" d="M607.475,156.49c-3.492,0-6.34,2.8-6.34,6.292V179.4
			c0,3.49,2.848,6.292,6.34,6.292h25.478c3.489,0,6.292-2.804,6.292-6.292v-16.618c0-3.492-2.803-6.292-6.292-6.292H607.475z"/>
	</g>
	<g id="RI_1_">
		
			<path id="RI" sodipodi:nodetypes="ccccccsssssssss" inkscape:connector-curvature="0" inkscape:label="" fill="#C6C6C6" stroke="#000000" stroke-width="0.2822" d="
			M589.085,5.75l-4.786,3.545l1.152,7.532l5.45-4.166l2.481-4.21L589.085,5.75z"/>
		<path fill="#C6C6C6" stroke="#000000" stroke-width="0.2822" d="M607.475,117.277c-3.492,0-6.34,2.802-6.34,6.293v16.616
			c0,3.489,2.848,6.294,6.34,6.294h25.478c3.489,0,6.292-2.806,6.292-6.294V123.57c0-3.491-2.803-6.293-6.292-6.293H607.475z"/>
	</g>
	<g id="MA_1_">
		<path fill="#C6C6C6" stroke="#000000" stroke-width="0.2822" d="M607.475,76.911c-3.492,0-6.34,2.802-6.34,6.292v16.572
			c0,3.49,2.848,6.293,6.34,6.293h25.478c3.489,0,6.292-2.802,6.292-6.293V83.204c0-3.491-2.803-6.292-6.292-6.292H607.475z"/>
		
			<path id="MA" sodipodi:nodetypes="ccccccccccccccsssssssss" inkscape:connector-curvature="0" inkscape:label="" fill="#C6C6C6" stroke="#000000" stroke-width="0.2822" d="
			M589.307-5.371l-13.471,4.387l-11.387,0.93l1.73,11.432l17.942-3.013l0.177,0.93l4.786-3.545l4.298,2.703l7.488,0.045l2.877-3.057
			l0.354-7.798l-5.981,5.317L589.307-5.371L589.307-5.371z"/>
	</g>
	<g id="VT_2_">
		<path id="VT_1_" fill="#C6C6C6" stroke="#000000" stroke-width="0.2822" d="M607.43,38.716c-3.489,0-6.293,2.802-6.293,6.292
			v16.572c0,3.489,2.805,6.337,6.293,6.337h25.478c3.489,0,6.292-2.846,6.292-6.337V45.009c0-3.491-2.803-6.292-6.292-6.292H607.43z
			"/>
		
			<path id="VT" sodipodi:nodetypes="ccccsscccccsssssssss" inkscape:connector-curvature="0" inkscape:label="" fill="#C6C6C6" stroke="#000000" stroke-width="0.2822" d="
			M569.057-41.749l-17.28,7.932l2.747,2.879l2.04,18.255c0,0,1.299,1.304,3.411,3.501c2.11,2.196,3.19,3.872,3.941,5.45
			c0.753,1.576,0.49,3.412,0.49,3.412l7.798-0.354l-1.772-10.103L569.057-41.749L569.057-41.749z"/>
	</g>
	<a xlink:href="LINK DC" >
		
			<path id="DC" sodipodi:nodetypes="sssssssss" inkscape:connector-curvature="0" inkscape:label="" fill="#921708" stroke="#000000" stroke-width="0.2822" d="
			M607.438,194.473h25.48c3.489,0,6.3,2.807,6.3,6.299v16.594c0,3.489-2.811,6.299-6.3,6.299h-25.48
			c-3.489,0-6.301-2.81-6.301-6.299v-16.594C601.137,197.279,603.949,194.473,607.438,194.473z"/>
	</a>
	<path id="PA" inkscape:connector-curvature="0" inkscape:label="#PA" fill="#C6C6C6" stroke="#000000" stroke-width="0.2822" d="
		M476.941,76.75l-5.901-22.658l-3.124-15.263l9.792-9.079l2.188,3.506l3.935,0.584l53.949-13.146c0,0,0.875,1.315,3.062,1.752
		c2.188,0.438,3.063,2.922,3.063,3.945c0,1.022-0.585,3.068-0.585,3.068l5.539,0.438c0,0,0.44,2.193-2.038,4.383
		s-0.875,5.845,0.144,7.159c1.024,1.314,6.271,5.111,6.271,5.111l-10.494,13.732l-52.247,13.738L476.941,76.75L476.941,76.75z"/>
	
		<path id="NY" sodipodi:nodetypes="ccsccccssssccccccccssscccscsccccssccc" inkscape:connector-curvature="0" fill="#C6C6C6" stroke="#000000" stroke-width="0.2822" d="
		M567.758,30.199l12.911-6.712c0,0-5.694,6.135-7.66,7.887c-1.968,1.753-6.265,4.821-6.265,4.821l-1.531-4.675l-16.621-1.314
		l-5.539-0.438c0,0,0.632-2.584,0.582-3.068c-0.05-0.483-0.33-2-1.069-2.701c-0.742-0.701-1.512-1.061-2.287-1.311
		c-0.778-0.249-1.462-0.519-1.853-0.825c-0.394-0.305-0.917-0.86-0.917-0.86l-16.58,4.041l-22.921,5.586l-14.446,3.521l-3.933-0.584
		l-2.19-3.506l7.291-12.417l1.166-7.013c0,0,6.123-4.819,7.146-4.819c1.021,0,3.206,1.022,5.685,1.022
		c2.481,0,4.085,1.315,5.688,1.608c1.604,0.292,11.518-8.766,11.518-8.766l4.813-2.776l-6.065-5.687c0,0,4.027-7.238,4.99-9.384
		c1.477-3.29,3.041-6.259,3.041-6.259s2.979-2.189,5.711-3.545c3.539-1.752,7.366-2.901,7.366-2.901l15.727-2.903l3.06,3.214
		l2.041,18.261c0,0,3.792,3.651,5.83,6.281c2.041,2.629,1.966,4.748,1.966,5.697c0,0.949,3.722,24.103,3.722,24.103l-1.794,4.757
		L567.758,30.199z"/>
</g>


<g id="inactive_labels" opacity="0.4" fill="#000">
	<g>
		<path d="M-28.186-43.167l-2.396-9.441h1.289l1.121,4.776c0.28,1.177,0.532,2.354,0.7,3.264h0.028
			c0.154-0.938,0.448-2.059,0.771-3.278l1.261-4.762h1.275l1.148,4.791c0.266,1.121,0.518,2.241,0.658,3.236h0.028
			c0.196-1.037,0.462-2.087,0.756-3.264l1.247-4.762h1.247l-2.675,9.441h-1.275l-1.19-4.917c-0.294-1.205-0.49-2.129-0.616-3.082
			h-0.028c-0.168,0.939-0.378,1.863-0.729,3.082l-1.345,4.917H-28.186z"/>
		<path d="M-17.154-46.137l-0.98,2.97h-1.261l3.208-9.441h1.471l3.222,9.441h-1.303l-1.008-2.97H-17.154z M-14.059-47.089
			l-0.924-2.718c-0.21-0.616-0.35-1.177-0.49-1.723h-0.028c-0.14,0.56-0.294,1.134-0.476,1.708l-0.924,2.732H-14.059z"/>
	</g>
	<g>
		<path d="M107.885-21.26c-0.07-1.316-0.154-2.899-0.14-4.076h-0.042c-0.322,1.107-0.714,2.283-1.191,3.586l-1.667,4.581h-0.925
			l-1.527-4.496c-0.448-1.331-0.826-2.55-1.092-3.67h-0.028c-0.028,1.177-0.098,2.76-0.182,4.174l-0.252,4.048h-1.163l0.658-9.441
			h1.555l1.611,4.566c0.392,1.163,0.714,2.199,0.952,3.18h0.042c0.238-0.953,0.575-1.989,0.995-3.18l1.681-4.566h1.555l0.588,9.441
			h-1.191L107.885-21.26z"/>
		<path d="M112.837-25.518h-2.872v-1.037h6.99v1.037h-2.885v8.404h-1.233V-25.518z"/>
	</g>
	<g>
		<path d="M113.47,54.887l-2.396-9.441h1.289l1.121,4.776c0.28,1.177,0.532,2.354,0.7,3.264h0.028
			c0.154-0.938,0.448-2.059,0.771-3.278l1.261-4.762h1.275l1.148,4.791c0.266,1.121,0.518,2.241,0.658,3.236h0.028
			c0.196-1.037,0.462-2.087,0.756-3.264l1.247-4.762h1.247l-2.675,9.441h-1.275l-1.19-4.917c-0.294-1.205-0.49-2.129-0.616-3.082
			h-0.028c-0.168,0.939-0.378,1.863-0.729,3.082l-1.345,4.917H113.47z"/>
		<path d="M125.874,54.887V50.88l-2.983-5.435h1.387l1.331,2.605c0.364,0.715,0.645,1.289,0.938,1.947h0.028
			c0.266-0.616,0.588-1.232,0.952-1.947l1.359-2.605h1.387l-3.166,5.421v4.02H125.874z"/>
	</g>
	<g>
		<path d="M139.193,124.579c-0.448,0.224-1.345,0.448-2.493,0.448c-2.662,0-4.665-1.681-4.665-4.777
			c0-2.956,2.003-4.958,4.931-4.958c1.176,0,1.919,0.252,2.241,0.42l-0.294,0.994c-0.462-0.224-1.121-0.392-1.905-0.392
			c-2.213,0-3.684,1.415-3.684,3.894c0,2.312,1.331,3.796,3.628,3.796c0.742,0,1.499-0.154,1.989-0.393L139.193,124.579z"/>
		<path d="M148.49,120.068c0,3.25-1.975,4.973-4.384,4.973c-2.493,0-4.244-1.933-4.244-4.791c0-2.998,1.863-4.958,4.384-4.958
			C146.823,115.292,148.49,117.267,148.49,120.068z M141.164,120.222c0,2.017,1.092,3.824,3.012,3.824
			c1.933,0,3.025-1.779,3.025-3.922c0-1.877-0.98-3.838-3.012-3.838C142.172,116.286,141.164,118.149,141.164,120.222z"/>
	</g>
	<g>
		<path d="M53.814,108.779v5.589c0,2.115,0.938,3.012,2.199,3.012c1.401,0,2.297-0.925,2.297-3.012v-5.589h1.232v5.505
			c0,2.899-1.527,4.09-3.572,4.09c-1.933,0-3.39-1.107-3.39-4.034v-5.561H53.814z"/>
		<path d="M63.446,109.815h-2.872v-1.037h6.99v1.037h-2.885v8.404h-1.233V109.815z"/>
	</g>
	<g>
		<path d="M-14.072,99.554v-9.441h1.331l3.025,4.776c0.7,1.106,1.247,2.101,1.695,3.068l0.028-0.014
			c-0.112-1.261-0.14-2.409-0.14-3.88v-3.95h1.148v9.441h-1.232l-2.998-4.791c-0.658-1.051-1.289-2.129-1.765-3.152l-0.042,0.014
			c0.07,1.19,0.098,2.325,0.098,3.894v4.034H-14.072z"/>
		<path d="M-2.787,99.554l-3.082-9.441h1.316l1.471,4.65c0.406,1.274,0.756,2.423,1.008,3.53h0.028
			c0.267-1.093,0.659-2.283,1.079-3.516l1.597-4.665h1.303l-3.376,9.441H-2.787z"/>
	</g>
	<g>
		<path d="M-60.141,125.912c-0.448,0.224-1.345,0.448-2.493,0.448c-2.662,0-4.665-1.681-4.665-4.777
			c0-2.956,2.003-4.958,4.931-4.958c1.176,0,1.919,0.252,2.241,0.42l-0.294,0.994c-0.462-0.224-1.121-0.392-1.905-0.392
			c-2.213,0-3.684,1.415-3.684,3.894c0,2.312,1.331,3.796,3.628,3.796c0.742,0,1.499-0.154,1.989-0.393L-60.141,125.912z"/>
		<path d="M-57.036,123.25l-0.98,2.97h-1.261l3.208-9.441h1.471l3.222,9.441h-1.303l-1.008-2.97H-57.036z M-53.94,122.298
			l-0.924-2.718c-0.21-0.616-0.35-1.177-0.49-1.723h-0.028c-0.14,0.56-0.294,1.134-0.476,1.708l-0.924,2.732H-53.94z"/>
	</g>
	<g>
		<path d="M50.123,189.251l-0.98,2.97h-1.261l3.208-9.441h1.471l3.222,9.441h-1.303l-1.008-2.97H50.123z M53.218,188.299
			l-0.924-2.718c-0.21-0.616-0.35-1.177-0.49-1.723h-0.028c-0.14,0.56-0.294,1.134-0.476,1.708l-0.924,2.732H53.218z"/>
		<path d="M56.52,191.506l5.239-7.662v-0.041h-4.791v-1.023h6.373v0.742l-5.21,7.635v0.042h5.281v1.022H56.52V191.506z"/>
	</g>
	<g>
		<path d="M120.596,205.554v-9.44h1.331l3.025,4.775c0.7,1.107,1.247,2.102,1.695,3.068l0.028-0.014
			c-0.112-1.262-0.14-2.41-0.14-3.881v-3.949h1.148v9.44h-1.232l-2.998-4.79c-0.658-1.051-1.289-2.13-1.765-3.152l-0.042,0.014
			c0.07,1.191,0.098,2.326,0.098,3.895v4.034H120.596z"/>
		<path d="M137.764,201.407c-0.07-1.316-0.154-2.899-0.14-4.076h-0.042c-0.322,1.106-0.714,2.283-1.191,3.586l-1.667,4.581H133.8
			l-1.527-4.496c-0.448-1.332-0.826-2.551-1.092-3.671h-0.028c-0.028,1.177-0.098,2.76-0.182,4.175l-0.252,4.048h-1.163l0.658-9.44
			h1.555l1.611,4.566c0.392,1.162,0.714,2.199,0.952,3.18h0.042c0.238-0.953,0.575-1.99,0.995-3.18l1.681-4.566h1.555l0.588,9.44
			h-1.191L137.764,201.407z"/>
	</g>
	<g>
		<path d="M205.92,28.735c0.546,0.336,1.345,0.616,2.185,0.616c1.247,0,1.975-0.658,1.975-1.611c0-0.882-0.504-1.387-1.779-1.877
			c-1.541-0.546-2.494-1.345-2.494-2.675c0-1.471,1.219-2.563,3.054-2.563c0.967,0,1.667,0.224,2.087,0.462l-0.336,0.995
			c-0.308-0.168-0.938-0.448-1.793-0.448c-1.289,0-1.779,0.77-1.779,1.415c0,0.882,0.574,1.317,1.877,1.821
			c1.597,0.617,2.409,1.387,2.409,2.774c0,1.457-1.079,2.717-3.306,2.717c-0.911,0-1.905-0.266-2.409-0.603L205.92,28.735z"/>
		<path d="M212.99,20.905c0.743-0.112,1.625-0.196,2.591-0.196c1.751,0,2.998,0.406,3.824,1.177c0.84,0.771,1.331,1.863,1.331,3.39
			c0,1.541-0.476,2.802-1.358,3.67c-0.883,0.883-2.339,1.359-4.174,1.359c-0.869,0-1.597-0.042-2.213-0.112V20.905z M214.209,29.253
			c0.308,0.056,0.756,0.07,1.233,0.07c2.605,0,4.02-1.457,4.02-4.006c0.014-2.227-1.247-3.642-3.824-3.642
			c-0.63,0-1.106,0.056-1.429,0.126V29.253z"/>
	</g>
	<g>
		<path d="M206.088-20.447v-9.441h1.331l3.025,4.776c0.7,1.106,1.247,2.101,1.695,3.068l0.028-0.014
			c-0.112-1.261-0.14-2.409-0.14-3.88v-3.95h1.148v9.441h-1.232l-2.998-4.791c-0.658-1.051-1.289-2.129-1.765-3.152l-0.042,0.014
			c0.07,1.19,0.098,2.325,0.098,3.894v4.034H206.088z"/>
		<path d="M215.3-29.762c0.743-0.112,1.625-0.196,2.591-0.196c1.751,0,2.998,0.406,3.824,1.177c0.84,0.771,1.331,1.863,1.331,3.39
			c0,1.541-0.476,2.802-1.358,3.67c-0.883,0.883-2.339,1.359-4.174,1.359c-0.869,0-1.597-0.042-2.213-0.112V-29.762z
			 M216.519-21.414c0.308,0.056,0.756,0.07,1.233,0.07c2.605,0,4.02-1.457,4.02-4.006c0.014-2.227-1.247-3.642-3.824-3.642
			c-0.63,0-1.106,0.056-1.429,0.126V-21.414z"/>
	</g>
	<g>
		<path d="M279.218-7.927c-0.07-1.316-0.154-2.899-0.14-4.076h-0.042c-0.322,1.107-0.714,2.283-1.191,3.586l-1.667,4.581h-0.925
			l-1.527-4.496c-0.448-1.331-0.826-2.55-1.092-3.67h-0.028c-0.028,1.177-0.098,2.76-0.182,4.174l-0.252,4.048h-1.163l0.658-9.441
			h1.555l1.611,4.566c0.392,1.163,0.714,2.199,0.952,3.18h0.042c0.238-0.953,0.575-1.989,0.995-3.18l1.681-4.566h1.555l0.588,9.441
			h-1.191L279.218-7.927z"/>
		<path d="M282.518-3.78v-9.441h1.331l3.025,4.776c0.7,1.106,1.247,2.101,1.695,3.068l0.028-0.014
			c-0.112-1.261-0.14-2.409-0.14-3.88v-3.95h1.148v9.441h-1.232l-2.998-4.791c-0.658-1.051-1.289-2.129-1.765-3.152l-0.042,0.014
			c0.07,1.19,0.098,2.325,0.098,3.894v4.034H282.518z"/>
	</g>
	<g>
		<path d="M-39.025,276.369l-0.98,2.971h-1.261l3.208-9.441h1.471l3.222,9.441h-1.303l-1.008-2.971H-39.025z M-35.93,275.418
			l-0.924-2.719c-0.21-0.615-0.35-1.176-0.49-1.723h-0.028c-0.14,0.561-0.294,1.135-0.476,1.709l-0.924,2.732H-35.93z"/>
		<path d="M-31.984,269.898h1.219v4.553h0.042c0.252-0.365,0.504-0.701,0.743-1.009l2.885-3.544h1.513L-29,273.904l3.684,5.436
			h-1.442l-3.11-4.637l-0.896,1.036v3.601h-1.219V269.898z"/>
	</g>
	<g>
		<path d="M92.054,328.779v3.949h4.566v-3.949h1.233v9.44H96.62v-4.427h-4.566v4.427h-1.219v-9.44H92.054z"/>
		<path d="M101.182,328.779v9.44h-1.219v-9.44H101.182z"/>
	</g>
	<g>
		<path d="M321.028,184.583l-0.98,2.97h-1.261l3.208-9.441h1.471l3.222,9.441h-1.303l-1.008-2.97H321.028z M324.124,183.631
			l-0.925-2.718c-0.21-0.616-0.35-1.177-0.49-1.723h-0.027c-0.141,0.56-0.295,1.134-0.477,1.708l-0.924,2.732H324.124z"/>
		<path d="M328.069,178.238c0.616-0.127,1.499-0.197,2.339-0.197c1.303,0,2.144,0.238,2.732,0.771
			c0.477,0.42,0.742,1.064,0.742,1.793c0,1.246-0.785,2.072-1.779,2.408v0.043c0.729,0.252,1.162,0.924,1.387,1.904
			c0.309,1.316,0.532,2.228,0.729,2.592h-1.261c-0.153-0.266-0.364-1.078-0.63-2.256c-0.281-1.303-0.785-1.793-1.892-1.834h-1.148
			v4.09h-1.219V178.238z M329.288,182.538h1.247c1.303,0,2.129-0.714,2.129-1.793c0-1.219-0.883-1.751-2.172-1.765
			c-0.588,0-1.008,0.056-1.204,0.111V182.538z"/>
	</g>
	<g>
		<path d="M372.792,216.073c-0.07-1.316-0.154-2.899-0.14-4.076h-0.043c-0.322,1.106-0.714,2.283-1.19,3.586l-1.667,4.581h-0.924
			l-1.527-4.496c-0.448-1.332-0.826-2.551-1.092-3.671h-0.029c-0.027,1.177-0.098,2.76-0.182,4.175l-0.252,4.048h-1.162l0.658-9.44
			h1.555l1.611,4.566c0.392,1.162,0.714,2.199,0.951,3.18h0.043c0.238-0.953,0.574-1.99,0.994-3.18l1.682-4.566h1.555l0.588,9.44
			h-1.191L372.792,216.073z"/>
		<path d="M375.924,218.734c0.546,0.337,1.344,0.617,2.185,0.617c1.247,0,1.976-0.658,1.976-1.611c0-0.883-0.505-1.387-1.779-1.877
			c-1.541-0.547-2.494-1.345-2.494-2.676c0-1.471,1.219-2.562,3.055-2.562c0.967,0,1.666,0.224,2.087,0.462l-0.337,0.995
			c-0.308-0.169-0.938-0.449-1.793-0.449c-1.288,0-1.778,0.771-1.778,1.415c0,0.882,0.574,1.317,1.877,1.821
			c1.597,0.616,2.409,1.387,2.409,2.773c0,1.457-1.078,2.717-3.306,2.717c-0.911,0-1.905-0.266-2.409-0.602L375.924,218.734z"/>
	</g>
	<g>
		<path d="M407.028,210.583l-0.98,2.97h-1.261l3.208-9.441h1.471l3.222,9.441h-1.303l-1.008-2.97H407.028z M410.124,209.631
			l-0.925-2.718c-0.21-0.616-0.35-1.177-0.49-1.723h-0.027c-0.141,0.56-0.295,1.134-0.477,1.708l-0.924,2.732H410.124z"/>
		<path d="M414.069,204.111h1.219v8.419h4.034v1.022h-5.253V204.111z"/>
	</g>
	<g>
		<path d="M462.021,205.799c-0.546,0.197-1.625,0.52-2.899,0.52c-1.43,0-2.605-0.365-3.53-1.247
			c-0.812-0.784-1.316-2.046-1.316-3.517c0.014-2.814,1.946-4.874,5.112-4.874c1.093,0,1.947,0.238,2.354,0.435l-0.294,0.994
			c-0.505-0.225-1.135-0.406-2.087-0.406c-2.297,0-3.797,1.429-3.797,3.796c0,2.396,1.443,3.81,3.643,3.81
			c0.799,0,1.345-0.111,1.625-0.252v-2.814h-1.92v-0.98h3.11V205.799z"/>
		<path d="M465.405,203.25l-0.98,2.97h-1.261l3.208-9.44h1.471l3.222,9.44h-1.303l-1.008-2.97H465.405z M468.501,202.298
			l-0.925-2.718c-0.21-0.616-0.35-1.177-0.49-1.723h-0.027c-0.141,0.561-0.295,1.135-0.477,1.709l-0.924,2.731H468.501z"/>
	</g>
	<g>
		<path d="M496.834,268.779h5.086v1.021h-3.867v3.139h3.572v1.008h-3.572v4.272h-1.219V268.779z"/>
		<path d="M503.652,268.779h1.219v8.418h4.034v1.022h-5.253V268.779z"/>
	</g>
	<g>
		<path d="M490.666,182.068c0.547,0.336,1.346,0.615,2.186,0.615c1.246,0,1.975-0.658,1.975-1.61c0-0.882-0.504-1.387-1.778-1.877
			c-1.541-0.546-2.493-1.345-2.493-2.675c0-1.471,1.219-2.564,3.053-2.564c0.967,0,1.668,0.225,2.088,0.463l-0.336,0.994
			c-0.309-0.168-0.939-0.447-1.793-0.447c-1.289,0-1.779,0.77-1.779,1.414c0,0.883,0.574,1.316,1.877,1.82
			c1.598,0.617,2.409,1.387,2.409,2.774c0,1.456-1.079,2.718-3.306,2.718c-0.91,0-1.904-0.267-2.409-0.604L490.666,182.068z"/>
		<path d="M504.334,183.244c-0.448,0.225-1.345,0.449-2.493,0.449c-2.661,0-4.665-1.682-4.665-4.777
			c0-2.955,2.004-4.959,4.932-4.959c1.176,0,1.918,0.252,2.24,0.421l-0.294,0.994c-0.462-0.224-1.12-0.392-1.905-0.392
			c-2.213,0-3.684,1.414-3.684,3.894c0,2.312,1.33,3.796,3.628,3.796c0.743,0,1.499-0.154,1.989-0.393L504.334,183.244z"/>
	</g>
	<g>
		<path d="M503.502,148.886v-9.441h1.33l3.025,4.776c0.701,1.106,1.247,2.101,1.695,3.068l0.028-0.014
			c-0.112-1.261-0.14-2.409-0.14-3.88v-3.95h1.148v9.441h-1.232l-2.998-4.791c-0.658-1.051-1.289-2.129-1.766-3.152l-0.041,0.014
			c0.069,1.19,0.098,2.325,0.098,3.894v4.034H503.502z"/>
		<path d="M519.311,148.578c-0.447,0.224-1.344,0.448-2.492,0.448c-2.662,0-4.665-1.681-4.665-4.777
			c0-2.956,2.003-4.958,4.931-4.958c1.176,0,1.919,0.252,2.241,0.42l-0.294,0.994c-0.463-0.224-1.121-0.392-1.905-0.392
			c-2.214,0-3.685,1.415-3.685,3.894c0,2.312,1.331,3.796,3.629,3.796c0.742,0,1.498-0.154,1.988-0.393L519.311,148.578z"/>
	</g>
	<g>
		<path d="M398.627,154.481h-2.871v-1.037h6.99v1.037h-2.886v8.404h-1.233V154.481z"/>
		<path d="M403.793,162.886v-9.441h1.33l3.025,4.776c0.701,1.106,1.247,2.101,1.695,3.068l0.028-0.014
			c-0.112-1.261-0.14-2.409-0.14-3.88v-3.95h1.148v9.441h-1.232l-2.998-4.791c-0.658-1.051-1.289-2.129-1.766-3.152l-0.041,0.014
			c0.069,1.19,0.098,2.325,0.098,3.894v4.034H403.793z"/>
	</g>
	<g>
		<path d="M416.834,120.778h1.219v4.552h0.043c0.252-0.364,0.504-0.7,0.742-1.008l2.885-3.544h1.514l-3.418,4.006l3.684,5.435
			h-1.442l-3.11-4.637l-0.896,1.037v3.6h-1.219V120.778z"/>
		<path d="M426.426,130.219v-4.006l-2.983-5.435h1.387l1.331,2.605c0.363,0.715,0.645,1.289,0.938,1.947h0.029
			c0.266-0.616,0.588-1.232,0.951-1.947l1.359-2.605h1.387l-3.166,5.421v4.02H426.426z"/>
	</g>
	<g>
		<path d="M468.883,105.552l-2.396-9.441h1.289l1.121,4.776c0.279,1.177,0.532,2.354,0.7,3.264h0.028
			c0.154-0.938,0.447-2.059,0.77-3.278l1.262-4.762h1.274l1.148,4.791c0.267,1.121,0.519,2.241,0.658,3.236h0.028
			c0.195-1.037,0.462-2.087,0.756-3.264l1.247-4.762h1.247l-2.676,9.441h-1.275l-1.189-4.917c-0.295-1.205-0.49-2.129-0.617-3.082
			h-0.027c-0.168,0.939-0.379,1.863-0.729,3.082l-1.346,4.917H468.883z"/>
		<path d="M481.482,105.552l-3.082-9.441h1.316l1.472,4.65c0.405,1.274,0.757,2.423,1.009,3.53h0.027
			c0.266-1.093,0.658-2.283,1.078-3.516l1.598-4.665h1.303l-3.376,9.441H481.482z"/>
	</g>
	<g>
		<path d="M505.414,111.552l-3.081-9.441h1.316l1.472,4.65c0.406,1.274,0.756,2.423,1.008,3.53h0.027
			c0.268-1.093,0.659-2.283,1.079-3.516l1.597-4.665h1.303l-3.375,9.441H505.414z"/>
		<path d="M511.883,108.582l-0.98,2.97h-1.262l3.209-9.441h1.471l3.221,9.441h-1.303l-1.008-2.97H511.883z M514.979,107.63
			l-0.925-2.718c-0.21-0.616-0.351-1.177-0.49-1.723h-0.028c-0.141,0.56-0.294,1.134-0.477,1.708l-0.924,2.732H514.979z"/>
	</g>
	<g>
		<path d="M500.008,43.557c0.589-0.098,1.359-0.182,2.34-0.182c1.205,0,2.088,0.28,2.647,0.785c0.519,0.448,0.827,1.134,0.827,1.975
			c0,0.854-0.253,1.527-0.729,2.017c-0.645,0.686-1.695,1.036-2.887,1.036c-0.363,0-0.699-0.014-0.98-0.084v3.782h-1.219V43.557z
			 M501.227,48.109c0.267,0.07,0.604,0.098,1.01,0.098c1.471,0,2.367-0.714,2.367-2.017c0-1.247-0.883-1.849-2.229-1.849
			c-0.531,0-0.938,0.042-1.148,0.098V48.109z"/>
		<path d="M507.807,49.916l-0.98,2.97h-1.26l3.207-9.441h1.471l3.223,9.441h-1.303l-1.01-2.97H507.807z M510.902,48.964
			l-0.924-2.718c-0.211-0.616-0.35-1.177-0.49-1.723h-0.028c-0.14,0.56-0.294,1.134-0.476,1.708l-0.925,2.732H510.902z"/>
	</g>
	<g>
		<path d="M443.41,74.733c0,3.25-1.975,4.973-4.384,4.973c-2.493,0-4.244-1.933-4.244-4.791c0-2.998,1.862-4.958,4.384-4.958
			C441.744,69.957,443.41,71.932,443.41,74.733z M436.085,74.887c0,2.017,1.093,3.824,3.011,3.824c1.934,0,3.026-1.779,3.026-3.922
			c0-1.877-0.98-3.838-3.012-3.838C437.094,70.951,436.085,72.814,436.085,74.887z"/>
		<path d="M446.207,70.111v3.95h4.566v-3.95h1.232v9.441h-1.232v-4.426h-4.566v4.426h-1.219v-9.441H446.207z"/>
	</g>
	<g>
		<path d="M393.387,82.111v9.441h-1.219v-9.441H393.387z"/>
		<path d="M395.515,91.552v-9.441h1.331l3.025,4.776c0.7,1.106,1.246,2.101,1.695,3.068l0.027-0.014
			c-0.111-1.261-0.14-2.409-0.14-3.88v-3.95h1.148v9.441h-1.232l-2.997-4.791c-0.659-1.051-1.289-2.129-1.766-3.152l-0.042,0.014
			c0.069,1.19,0.099,2.325,0.099,3.894v4.034H395.515z"/>
	</g>
	<g>
		<path d="M354.055,87.445v9.441h-1.219v-9.441H354.055z"/>
		<path d="M356.182,87.445h1.219v8.418h4.034v1.022h-5.253V87.445z"/>
	</g>
	<g>
		<path d="M338.377,22.219l-2.396-9.441h1.289l1.121,4.776c0.279,1.177,0.532,2.354,0.7,3.264h0.028
			c0.154-0.938,0.447-2.059,0.77-3.278l1.262-4.762h1.274l1.148,4.791c0.267,1.121,0.519,2.241,0.658,3.236h0.028
			c0.195-1.037,0.462-2.087,0.756-3.264l1.247-4.762h1.247l-2.676,9.441h-1.275l-1.189-4.917c-0.295-1.205-0.49-2.129-0.617-3.082
			h-0.027c-0.168,0.939-0.379,1.863-0.729,3.082l-1.346,4.917H338.377z"/>
		<path d="M349.898,12.778v9.441h-1.219v-9.441H349.898z"/>
	</g>
	<g>
		<path d="M414.125,30.072c-0.07-1.316-0.154-2.899-0.141-4.076h-0.041c-0.322,1.107-0.715,2.283-1.191,3.586l-1.666,4.581h-0.926
			l-1.526-4.496c-0.448-1.331-0.826-2.55-1.093-3.67h-0.027c-0.028,1.177-0.099,2.76-0.183,4.174l-0.252,4.048h-1.163l0.658-9.441
			h1.555l1.611,4.566c0.393,1.163,0.715,2.199,0.953,3.18h0.041c0.238-0.953,0.575-1.989,0.995-3.18l1.681-4.566h1.555l0.589,9.441
			h-1.19L414.125,30.072z"/>
		<path d="M418.643,24.778v9.441h-1.219v-9.441H418.643z"/>
	</g>
	<g>
		<path d="M531.235,7.552v-9.441h1.331l3.025,4.776c0.7,1.106,1.246,2.101,1.695,3.068l0.027-0.014
			c-0.111-1.261-0.14-2.409-0.14-3.88v-3.95h1.148v9.441h-1.232l-2.998-4.791c-0.658-1.051-1.288-2.129-1.765-3.152l-0.042,0.014
			c0.069,1.19,0.099,2.325,0.099,3.894v4.034H531.235z"/>
		<path d="M542.451,7.552V3.545l-2.984-5.435h1.387l1.331,2.605c0.364,0.715,0.645,1.289,0.938,1.947h0.028
			c0.267-0.616,0.589-1.232,0.952-1.947l1.359-2.605h1.387l-3.166,5.421v4.02H542.451z"/>
	</g>
	<g>
		<path d="M596.525-57.261c-0.07-1.316-0.154-2.899-0.14-4.076h-0.042c-0.322,1.107-0.715,2.283-1.191,3.586l-1.666,4.581h-0.925
			l-1.526-4.496c-0.449-1.331-0.826-2.55-1.093-3.67h-0.028c-0.027,1.177-0.098,2.76-0.182,4.174l-0.252,4.048h-1.163l0.658-9.441
			h1.555l1.611,4.566c0.392,1.163,0.714,2.199,0.952,3.18h0.042c0.238-0.953,0.575-1.989,0.995-3.18l1.681-4.566h1.555l0.589,9.441
			h-1.191L596.525-57.261z"/>
		<path d="M604.714-57.541h-3.67v3.404h4.091v1.022h-5.31v-9.441h5.099v1.022h-3.88v2.983h3.67V-57.541z"/>
	</g>
	<g>
		<path d="M615.683,57.426l-3.081-9.441h1.316l1.471,4.65c0.406,1.274,0.756,2.423,1.008,3.53h0.028
			c0.267-1.093,0.659-2.283,1.079-3.516l1.597-4.665h1.303l-3.376,9.441H615.683z"/>
		<path d="M623.676,49.021h-2.871v-1.037h6.99v1.037h-2.886v8.404h-1.233V49.021z"/>
	</g>
	<g>
		<path d="M619.368,91.453c-0.07-1.316-0.154-2.899-0.14-4.076h-0.043c-0.322,1.107-0.714,2.283-1.19,3.586l-1.667,4.581h-0.924
			l-1.527-4.496c-0.448-1.331-0.826-2.55-1.092-3.67h-0.029c-0.027,1.177-0.098,2.76-0.182,4.174l-0.252,4.048h-1.162l0.658-9.441
			h1.555l1.611,4.566c0.392,1.163,0.714,2.199,0.951,3.18h0.043c0.238-0.953,0.574-1.989,0.994-3.18l1.682-4.566h1.555l0.588,9.441
			h-1.191L619.368,91.453z"/>
		<path d="M624.055,92.63l-0.98,2.97h-1.262l3.209-9.441h1.471l3.221,9.441h-1.303l-1.008-2.97H624.055z M627.15,91.678
			l-0.925-2.718c-0.21-0.616-0.351-1.177-0.49-1.723h-0.028c-0.141,0.56-0.294,1.134-0.477,1.708l-0.924,2.732H627.15z"/>
	</g>
	<g>
		<path d="M615.814,126.673c0.617-0.126,1.5-0.196,2.34-0.196c1.303,0,2.143,0.238,2.731,0.771c0.476,0.42,0.743,1.064,0.743,1.793
			c0,1.247-0.785,2.073-1.779,2.409v0.042c0.729,0.252,1.162,0.925,1.387,1.905c0.308,1.316,0.531,2.227,0.729,2.591h-1.262
			c-0.153-0.266-0.363-1.079-0.63-2.255c-0.28-1.303-0.784-1.793-1.892-1.835h-1.148v4.09h-1.219V126.673z M617.033,130.974h1.247
			c1.303,0,2.13-0.714,2.13-1.793c0-1.219-0.883-1.751-2.172-1.765c-0.588,0-1.008,0.056-1.205,0.112V130.974z"/>
		<path d="M624.565,126.547v9.441h-1.219v-9.441H624.565z"/>
	</g>
	<g>
		<path d="M663.417,165.886c0.743-0.112,1.625-0.196,2.591-0.196c1.752,0,2.998,0.406,3.824,1.177
			c0.841,0.771,1.331,1.863,1.331,3.39c0,1.541-0.476,2.802-1.358,3.669c-0.883,0.883-2.34,1.359-4.174,1.359
			c-0.869,0-1.598-0.042-2.214-0.111V165.886z M664.636,174.234c0.308,0.057,0.757,0.07,1.233,0.07c2.604,0,4.02-1.457,4.02-4.006
			c0.014-2.227-1.246-3.642-3.824-3.642c-0.631,0-1.106,0.056-1.429,0.126V174.234z"/>
		<path d="M677.629,170.775h-3.67v3.404h4.091v1.022h-5.31v-9.441h5.1v1.022h-3.881v2.983h3.67V170.775z"/>
	</g>
	<g>
		<path d="M664.326,135.987v-9.441h1.332l3.025,4.776c0.699,1.106,1.246,2.101,1.694,3.068l0.028-0.014
			c-0.112-1.261-0.141-2.409-0.141-3.88v-3.95h1.148v9.441h-1.232l-2.998-4.791c-0.658-1.051-1.288-2.129-1.764-3.152l-0.043,0.014
			c0.07,1.19,0.099,2.325,0.099,3.894v4.034H664.326z"/>
		<path d="M675.472,126.546h1.219v6.317c0,2.507-1.233,3.278-2.857,3.278c-0.448,0-0.995-0.098-1.303-0.224l0.183-0.995
			c0.252,0.098,0.615,0.182,1.021,0.182c1.094,0,1.737-0.49,1.737-2.339V126.546z"/>
	</g>
	<g>
		<path d="M670.379,95.269c-0.449,0.224-1.346,0.448-2.494,0.448c-2.661,0-4.664-1.681-4.664-4.777c0-2.956,2.003-4.958,4.931-4.958
			c1.177,0,1.919,0.252,2.241,0.42l-0.295,0.994c-0.461-0.224-1.12-0.392-1.904-0.392c-2.213,0-3.684,1.415-3.684,3.894
			c0,2.312,1.33,3.796,3.627,3.796c0.742,0,1.5-0.154,1.99-0.393L670.379,95.269z"/>
		<path d="M674.086,87.173h-2.872v-1.037h6.989v1.037h-2.885v8.404h-1.232V87.173z"/>
	</g>
	<g>
		<path d="M662.353,57.427v-9.441h1.331l3.025,4.776c0.7,1.106,1.246,2.101,1.695,3.068l0.027-0.014
			c-0.111-1.261-0.14-2.409-0.14-3.88v-3.95h1.148v9.441h-1.232l-2.998-4.791c-0.658-1.051-1.288-2.129-1.765-3.152l-0.042,0.014
			c0.069,1.19,0.099,2.325,0.099,3.894v4.034H662.353z"/>
		<path d="M672.783,47.986v3.95h4.566v-3.95h1.232v9.441h-1.232V53h-4.566v4.426h-1.219v-9.441H672.783z"/>
	</g>
</g>



<g id="active_labels" fill="#fff">
	<g>
		<path d="M252.237,179.401c0,3.249-1.975,4.973-4.384,4.973c-2.493,0-4.244-1.933-4.244-4.791
			c0-2.997,1.863-4.958,4.384-4.958C250.57,174.625,252.237,176.6,252.237,179.401z M244.912,179.555
			c0,2.018,1.092,3.824,3.011,3.824c1.933,0,3.026-1.779,3.026-3.922c0-1.877-0.98-3.838-3.012-3.838
			C245.92,175.619,244.912,177.482,244.912,179.555z"/>
		<path d="M253.815,174.779h1.219v4.552h0.042c0.252-0.364,0.504-0.7,0.743-1.009l2.885-3.543h1.513l-3.417,4.006
			l3.684,5.435h-1.442l-3.11-4.637l-0.896,1.036v3.601h-1.219V174.779z"/>
	</g>
	<g>
		<path d="M206.088,80.22v-9.441h1.331l3.025,4.776c0.7,1.106,1.247,2.101,1.695,3.068l0.028-0.014
			c-0.112-1.261-0.14-2.409-0.14-3.88v-3.95h1.148v9.441h-1.232l-2.998-4.791c-0.658-1.051-1.289-2.129-1.765-3.152l-0.042,0.014
			c0.07,1.19,0.098,2.325,0.098,3.894v4.034H206.088z"/>
		<path d="M220.189,75.793h-3.67v3.404h4.09v1.022H215.3v-9.441h5.099v1.022h-3.88v2.983h3.67V75.793z"/>
	</g>
	<g>
		<path d="M31.147,22.113v9.441h-1.219v-9.441H31.147z"/>
		<path d="M33.275,22.239c0.743-0.112,1.625-0.196,2.591-0.196c1.751,0,2.998,0.406,3.824,1.177
			c0.84,0.771,1.331,1.863,1.331,3.39c0,1.541-0.476,2.802-1.358,3.67c-0.883,0.883-2.339,1.359-4.174,1.359
			c-0.869,0-1.597-0.042-2.213-0.112V22.239z M34.494,30.587c0.308,0.056,0.756,0.07,1.233,0.07c2.605,0,4.02-1.457,4.02-4.006
			c0.014-2.227-1.247-3.642-3.824-3.642c-0.63,0-1.106,0.056-1.429,0.126V30.587z"/>
	</g>
	<g>
		<path d="M-38.67,9.401c0,3.25-1.975,4.973-4.384,4.973c-2.493,0-4.244-1.933-4.244-4.791
			c0-2.998,1.863-4.958,4.384-4.958C-40.337,4.625-38.67,6.6-38.67,9.401z M-45.996,9.555c0,2.017,1.092,3.824,3.011,3.824
			c1.933,0,3.026-1.779,3.026-3.922c0-1.877-0.98-3.838-3.012-3.838C-44.987,5.619-45.996,7.482-45.996,9.555z"/>
		<path d="M-37.092,4.905c0.617-0.126,1.499-0.196,2.339-0.196c1.303,0,2.143,0.238,2.731,0.771
			c0.477,0.42,0.743,1.064,0.743,1.793c0,1.247-0.785,2.073-1.779,2.409v0.042c0.729,0.252,1.163,0.925,1.387,1.905
			c0.308,1.316,0.532,2.227,0.729,2.591h-1.261c-0.154-0.266-0.364-1.079-0.63-2.255c-0.28-1.303-0.784-1.793-1.891-1.835h-1.148
			v4.09h-1.219V4.905z M-35.874,9.205h1.247c1.303,0,2.129-0.714,2.129-1.793c0-1.219-0.883-1.751-2.171-1.765
			c-0.588,0-1.008,0.056-1.205,0.112V9.205z"/>
	</g>
	<g>
		<path d="M314.791,125.62c-0.07-1.316-0.154-2.899-0.141-4.076h-0.041c-0.322,1.107-0.715,2.283-1.191,3.586
			l-1.666,4.581h-0.926l-1.526-4.496c-0.448-1.331-0.826-2.55-1.093-3.67h-0.027c-0.028,1.177-0.099,2.76-0.183,4.174l-0.252,4.048
			h-1.163l0.658-9.441h1.555l1.611,4.566c0.393,1.163,0.715,2.199,0.953,3.18h0.041c0.238-0.953,0.575-1.989,0.995-3.18l1.681-4.566
			h1.555l0.589,9.441h-1.19L314.791,125.62z"/>
		<path d="M326.158,124.948c0,3.25-1.975,4.973-4.384,4.973c-2.493,0-4.244-1.933-4.244-4.791
			c0-2.998,1.862-4.958,4.384-4.958C324.492,120.171,326.158,122.146,326.158,124.948z M318.833,125.102
			c0,2.017,1.093,3.824,3.011,3.824c1.934,0,3.026-1.779,3.026-3.922c0-1.877-0.98-3.838-3.012-3.838
			C319.842,121.166,318.833,123.029,318.833,125.102z"/>
	</g>
	<g>
		<path d="M323.608,241.259h1.219v8.419h4.034v1.021h-5.253V241.259z"/>
		<path d="M331.743,247.73l-0.98,2.969h-1.261l3.208-9.44h1.471l3.222,9.44H336.1l-1.009-2.969H331.743z
			 M334.839,246.777l-0.925-2.717c-0.21-0.617-0.35-1.178-0.49-1.723h-0.027c-0.141,0.56-0.295,1.134-0.477,1.708l-0.924,2.731
			H334.839z"/>
	</g>
	<g>
		<path d="M618.921,171.054c-0.07-1.316-0.154-2.899-0.14-4.076h-0.043c-0.322,1.107-0.714,2.283-1.19,3.586
			l-1.667,4.581h-0.924l-1.527-4.497c-0.448-1.331-0.826-2.55-1.092-3.67h-0.029c-0.027,1.177-0.098,2.76-0.182,4.174l-0.252,4.048
			h-1.162l0.658-9.441h1.555l1.611,4.566c0.392,1.163,0.714,2.199,0.951,3.18h0.043c0.238-0.953,0.574-1.99,0.994-3.18l1.682-4.566
			h1.555l0.588,9.441h-1.191L618.921,171.054z"/>
		<path d="M622.221,165.885c0.742-0.112,1.625-0.196,2.591-0.196c1.751,0,2.998,0.406,3.824,1.177
			c0.841,0.771,1.331,1.863,1.331,3.39c0,1.541-0.477,2.802-1.359,3.67c-0.883,0.883-2.339,1.358-4.174,1.358
			c-0.869,0-1.598-0.042-2.213-0.112V165.885z M623.439,174.234c0.308,0.055,0.756,0.069,1.232,0.069c2.605,0,4.02-1.457,4.02-4.006
			c0.015-2.227-1.246-3.642-3.824-3.642c-0.63,0-1.105,0.056-1.428,0.126V174.234z"/>
	</g>
	<g>
		<path d="M612.521,203.863c0.742-0.113,1.625-0.197,2.591-0.197c1.751,0,2.998,0.406,3.824,1.178
			c0.841,0.77,1.331,1.862,1.331,3.389c0,1.541-0.477,2.803-1.359,3.67c-0.883,0.883-2.339,1.359-4.174,1.359
			c-0.869,0-1.598-0.042-2.213-0.111V203.863z M613.74,212.211c0.308,0.057,0.756,0.07,1.232,0.07c2.605,0,4.02-1.457,4.02-4.006
			c0.015-2.228-1.246-3.643-3.824-3.643c-0.63,0-1.105,0.057-1.428,0.127V212.211z"/>
		<path d="M628.442,212.869c-0.448,0.225-1.345,0.449-2.493,0.449c-2.662,0-4.664-1.682-4.664-4.777
			c0-2.955,2.002-4.959,4.93-4.959c1.178,0,1.92,0.252,2.242,0.421l-0.295,0.994c-0.462-0.224-1.121-0.392-1.904-0.392
			c-2.214,0-3.685,1.414-3.685,3.894c0,2.312,1.331,3.796,3.628,3.796c0.742,0,1.499-0.154,1.989-0.393L628.442,212.869z"/>
	</g>
	<g>
		<path d="M231.722,253.149h-2.872v-1.036h6.99v1.036h-2.885v8.404h-1.233V253.149z"/>
		<path d="M242.363,261.554l-1.205-2.087c-0.49-0.799-0.798-1.316-1.093-1.863h-0.028
			c-0.266,0.547-0.532,1.051-1.022,1.877l-1.135,2.073h-1.401l2.886-4.776l-2.773-4.664h1.415l1.247,2.213
			c0.35,0.616,0.617,1.092,0.869,1.597h0.042c0.266-0.561,0.504-0.995,0.854-1.597l1.289-2.213h1.401l-2.872,4.594l2.941,4.847
			H242.363z"/>
	</g>
	<g>
		<path d="M292.48,58.112v9.441h-1.219v-9.441H292.48z"/>
		<path d="M296.135,64.583l-0.98,2.97h-1.261l3.208-9.441h1.471l3.222,9.441h-1.303l-1.009-2.97H296.135z
			 M299.23,63.631l-0.924-2.718c-0.211-0.616-0.351-1.177-0.49-1.723h-0.029c-0.14,0.56-0.293,1.134-0.476,1.708l-0.925,2.732
			H299.23z"/>
	</g>
	<g>
		<path d="M231.929,121.446h1.219v4.552h0.042c0.252-0.364,0.504-0.7,0.743-1.008l2.885-3.544h1.513l-3.417,4.006
			l3.684,5.435h-1.443l-3.11-4.637l-0.896,1.037v3.6h-1.219V121.446z"/>
		<path d="M239.349,129.402c0.546,0.336,1.345,0.616,2.185,0.616c1.247,0,1.975-0.658,1.975-1.611
			c0-0.882-0.504-1.387-1.779-1.877c-1.541-0.546-2.494-1.345-2.494-2.675c0-1.471,1.219-2.563,3.054-2.563
			c0.967,0,1.667,0.224,2.087,0.462l-0.336,0.995c-0.308-0.168-0.938-0.448-1.793-0.448c-1.289,0-1.779,0.77-1.779,1.415
			c0,0.882,0.574,1.317,1.877,1.821c1.597,0.617,2.409,1.387,2.409,2.774c0,1.457-1.079,2.717-3.306,2.717
			c-0.911,0-1.905-0.266-2.409-0.603L239.349,129.402z"/>
	</g>
</g>
</svg>
